/* XPM */
static char *result[] = {
/* columns rows colors chars-per-pixel */
"40 40 95 2 ",
"   c #000000",
".  c #0A0606",
"X  c #0D0A09",
"o  c #19100F",
"O  c #111111",
"+  c #1F1615",
"@  c #1D1C1C",
"#  c #201514",
"$  c #241817",
"%  c #251C1B",
"&  c #2C1E1C",
"*  c #242424",
"=  c #2B2A2A",
"-  c #362321",
";  c #342E2D",
":  c #323232",
">  c #3D3D3D",
",  c #422D2B",
"<  c #492F2C",
"1  c #48312F",
"2  c #4C3533",
"3  c #533634",
"4  c #563836",
"5  c #5A3A36",
"6  c #543E3C",
"7  c #5E3E3A",
"8  c #603C37",
"9  c #623F3B",
"0  c #56403E",
"q  c #65413D",
"w  c #6A433F",
"e  c #434343",
"r  c #4C4C4C",
"t  c #534847",
"y  c #5D4D4B",
"u  c #525151",
"i  c #5E5352",
"p  c #5A5A5A",
"a  c #674542",
"s  c #6D4541",
"d  c #674945",
"f  c #6A4946",
"g  c #6A4C49",
"h  c #714844",
"j  c #754D49",
"k  c #61504E",
"l  c #6F504C",
"z  c #645554",
"x  c #6C5451",
"c  c #6A5E5D",
"v  c #735552",
"b  c #795652",
"n  c #795A56",
"m  c #765C59",
"M  c #7D5F5C",
"N  c #6C605F",
"B  c #656666",
"V  c #6E6363",
"C  c #6C6C6C",
"Z  c #766664",
"A  c #7A6664",
"S  c #796866",
"D  c #746C6B",
"F  c #7D6D6B",
"G  c #737070",
"H  c #7A7373",
"J  c #7A7A7A",
"K  c #80625F",
"L  c #816562",
"P  c #846A67",
"I  c #82716F",
"U  c #837371",
"Y  c #897573",
"T  c #857877",
"R  c #897977",
"E  c #837F7F",
"W  c #84807F",
"Q  c #8D817F",
"!  c #848282",
"~  c #898686",
"^  c #8E8887",
"/  c #8D8E8E",
"(  c #958685",
")  c #948D8C",
"_  c #98908F",
"`  c #8F9090",
"'  c #929292",
"]  c #9B9594",
"[  c #9C9A9A",
"{  c #A09E9D",
"}  c #A4A4A4",
"|  c #A7A8A8",
" . c #ABABAB",
".. c #AEB0B0",
"X. c None",
/* pixels */
"X.X.X.X.X.X.X.X.X.X.                                        X.X.X.X.X.X.X.X.X.X.",
"X.X.X.X.X.X.X.X.X.X.X X X X X X X X X X X X X X X X X X X X X.X.X.X.X.X.X.X.X.X.",
"X.X.X.X.X.X.X.X.X.o & - - - - - - - - - - - - , - - - - - & o X.X.X.X.X.X.X.X.X.",
"X.X.X.X.X.        # < 9 q 9 9 9 9 9 9 9 9 9 8 9 9 9 9 w 9 < $       . X.X.X.X.X.",
"X.X.X.X.@ = = * # - 5 h j h h j j h h j h h j h j h h j j 5 - # % * * O X.X.X.X.",
"X.X.X.. = p C i 2 2 q h h h j h j h h h h h h h h h h j h 9 3 1 t p r * . X.X.X.",
"X.X.. O > J ' Y g q w h h h h h h h h h h h h h h h h h h w 9 f D J B : O . X.X.",
"X.O ; r C ' { R j w w h h h h s h h s h h h h h h h h h h h q f F ! J p > = X X.",
"  O r ! [ | [ I g q w h h h h h h h h h h h s h w h h h w h 9 f Z W ~ E C > O   ",
"  O u ' .. .[ I g q w h s h h h s h h s h h h h h h h h h w q f Z W ` ` J e O   ",
". O u '  . .[ U g q w h h h s h h h h h h s h h h h h h h s q f Z ! ` ` J e O   ",
"  O r ' | | ] H g q w h h h h h h h h h h h h h h h h h h s q f Z ~ ` ` J e O . ",
"  O e ~ [ [ / F g q w h h h h h h h h h h h h s w h h h h w q g F ) [ [ ! r O   ",
"  O e J ' ` ! Z f q w h h h h h h s h h h s h h h h h h h w q g F ] | | / u O   ",
"  O e J ` / E Z f q s h h h h s h h h s h h h h h h h h j w 9 g U [  . .' u O   ",
"  O e J ` / E Z f q s h h h h h h h h h h h h h h h h h h w q g U [  . .` u O   ",
"  O e J / / W Z f q s f h h h h s h h s h h h h h h h h h q q g U ]  . .` u O . ",
"  O e J / / E Z d q q s s h h h h h h s h s s h h h h s s q q g U ] |  .` r O   ",
"  O e J ` / ! Z d 9 9 q s s h h h f h h h h h h h h h s q 9 9 g U [  . .' r O   ",
"  O e E [ ' ^ S d 9 9 q q s s q s b M K M M b f q w w q q 9 8 g U ]  . .' u O   ",
"  O r ^ } } ' F f 5 9 9 9 q 9 9 f A R _ _ Q A s 9 q q q q 5 8 g U [  . .' u O   ",
"  O r ` | | ] U x d d f g d f f b R { | | { R v f d d d d d d l U ] } | / u O   ",
". O r ! [ [ ' E F S Z S Z S S P R ' | ....} _ Y F S Z S S Z S F ! ' [ { ~ e O   ",
"  O e J ' / ) ~ ! E E E E ! ~ ' [ [ { } { } { { _ ~ W E W W W ! ~ / ` ' J e O   ",
"  O e J / / ! E H H H H H U ^ { } ` J C C J ` { [ ^ J H H H H H J ~ / / J e O   ",
"  O e J / ^ ! C z y y k x m Y ] ' B > * * > C [ [ Y m l k y y z D ! / / J e O   ",
"  X e J ` / ! c t 2 2 4 9 s L ( / p * O X * p ^ ( K s q 4 3 2 0 c E / / J e X   ",
"  O e J ` ` J c 4 2 4 7 9 s b P H B p r r u V U P b s q 5 5 1 6 c ! / ` J > O   ",
"  O e J / / ! c 6 4 9 s h h j j n U ^ ' ) ^ U n j h h h s q 3 0 c E / / J e O   ",
"  O > J ` / E c 6 4 a s h h w w j P ( ' ] ( P j s s h h h q 4 6 c E / ` J e O   ",
"  O e J ` / E c 6 5 9 h h h s h j b L P P L b h h s h h f q 4 0 c E / / J e X   ",
"  X e J ` ` J c 6 5 9 h h h h h h h h h h h h h h h h h h q 4 6 V J / / J e O   ",
"  O e J ` / E c 0 4 q h h h f h h w s s s s w h h h h h h q 5 6 c E ` ` J e O   ",
"  O e J ` ` E N 0 3 q f h h h h h h h h h h h h h h h h f q 4 6 c E / ` J e O   ",
"  O e J ' ` E V 0 4 7 a h h j h h h h h h h h h h h h h a 7 4 6 N ! ` ' J e O   ",
"  O e J ' ` ! V 0 2 4 7 q h h j j h j j h j j h K j j 9 5 4 3 t V ! ' ' J e O   ",
"  O e C J J G p 2 , , 1 4 9 9 9 9 9 9 q q 9 9 9 8 8 8 5 < , , 2 i G J E C > O   ",
"X.X = > e e 2 : & $ $ $ & - - - - - - - - - - - - - - & $ $ $ & ; > e e e = O X.",
"X.X.O O O O O X . . . . . X X X X . X X X X X X . X X X . . . . X O O O O X X.X.",
"X.X.X.                                          .                         X.X.X."
};
