/* XPM */
static char *result[] = {
/* columns rows colors chars-per-pixel */
"40 40 134 2 ",
"   c #000000",
".  c #0A0606",
"X  c #0D0807",
"o  c #0D0A0A",
"O  c #120F0F",
"+  c #19100F",
"@  c #111111",
"#  c #1E1514",
"$  c #1D1D1D",
"%  c #201514",
"&  c #241817",
"*  c #261A19",
"=  c #2B1E1C",
"-  c #34201E",
";  c #232323",
":  c #2A2A2A",
">  c #362321",
",  c #342E2D",
"<  c #333334",
"1  c #3D3D3D",
"2  c #422D2B",
"3  c #492F2C",
"4  c #48312F",
"5  c #4D3533",
"6  c #4C3E3D",
"7  c #533634",
"8  c #563836",
"9  c #5C3A36",
"0  c #543E3C",
"q  c #5E3E3A",
"w  c #603B37",
"e  c #623F3B",
"r  c #56403E",
"t  c #65413D",
"y  c #6A423E",
"u  c #434343",
"i  c #4C4D4D",
"p  c #534847",
"a  c #5D4D4B",
"s  c #525252",
"d  c #5E5453",
"f  c #5B5B5B",
"g  c #674542",
"h  c #6D4541",
"j  c #674945",
"k  c #6A4946",
"l  c #6B4C49",
"z  c #704743",
"x  c #714844",
"c  c #744D49",
"v  c #61504E",
"b  c #75514D",
"n  c #645554",
"m  c #6C5451",
"M  c #6A5E5D",
"N  c #735552",
"B  c #7A5652",
"V  c #765854",
"C  c #795A56",
"Z  c #765C59",
"A  c #7D5F5C",
"S  c #6C605F",
"D  c #71605E",
"F  c #656666",
"G  c #6D6463",
"H  c #6D6D6D",
"J  c #766664",
"K  c #7A6664",
"L  c #796866",
"P  c #746C6B",
"I  c #7D6D6B",
"U  c #737272",
"Y  c #7A7373",
"T  c #7A7A7A",
"R  c #805D59",
"E  c #80625F",
"W  c #826562",
"Q  c #846A67",
"!  c #886865",
"~  c #876D6B",
"^  c #8F6F6C",
"/  c #82716F",
"(  c #91716D",
")  c #837371",
"_  c #897573",
"`  c #857877",
"'  c #887977",
"]  c #837F7F",
"[  c #8E7D7B",
"{  c #84807F",
"}  c #8D817F",
"|  c #858282",
" . c #898686",
".. c #8E8887",
"X. c #8D8D8D",
"o. c #958685",
"O. c #9D8785",
"+. c #948D8D",
"@. c #98908F",
"#. c #8F9090",
"$. c #929292",
"%. c #9B9594",
"&. c #9C9A9A",
"*. c #A58C89",
"=. c #A9908D",
"-. c #A09E9E",
";. c #AA9A98",
":. c #B09997",
">. c #B3A09E",
",. c #A4A4A4",
"<. c #A7A8A8",
"1. c #AAABAB",
"2. c #BEA9A7",
"3. c #BBB0AF",
"4. c #AEB0B0",
"5. c #B9B5B4",
"6. c #BABABA",
"7. c #C9BDBC",
"8. c #C1C1C1",
"9. c #CEC1C0",
"0. c #C9C9CA",
"q. c #D0C2C1",
"w. c #D6CDCC",
"e. c #D9CFCE",
"r. c #DCDCDC",
"t. c #E0D6D6",
"y. c #E1DDDD",
"u. c #E1E1E1",
"i. c #ECE6E6",
"p. c #EBEBEB",
"a. c #F2EEEE",
"s. c #F6F4F3",
"d. c #FDFDFD",
"f. c None",
/* pixels */
"f.f.f.f.f.f.f.f.f.f.                                        f.f.f.f.f.f.f.f.f.f.",
"f.f.f.f.f.f.f.f.f.f.: $ ; $ # O o X X o X O X X X O X o o X f.f.f.f.f.f.f.f.f.f.",
"f.f.f.f.f.f.f.f.f.0.$.T T | F 6 > - > > > > > > - > > > > = + f.f.f.f.f.f.f.f.f.",
"f.f.f.f.f.  ; T u.d.p.y.u.u.3.~ t 9 e e e e e e e e e y e 4 %         f.f.f.f.f.",
"f.f.f.f.; 1 f -.p.d.d.d.a.e.7.( c z x x c x x c c c x c x 9 - % & ; ; $ f.f.f.f.",
"f.f.f.  1  .6.r.s.d.d.s.7.*.! B x z x x c x x x z x x x x y 7 5 p f i ;   f.f.f.",
"f.f.o ; f 5.d.d.d.d.s.t.:.R h h x x x x z x x x z x x x x y e j L T F < @ . f.f.",
"f.$ i U ,.r.d.d.d.i.q.:.( c y h x x x x x x z x x x x x x h t l L | T f u : @ f.",
"  $ U 0.s.d.d.d.d.e.*.E c x h x x h x h x x x h x x x x x h t j J {  .| H 1 @   ",
"  $ T u.d.d.s.p.w.:.! h y z x x x x x c x x x x x z x z z h t k J { #.#.T u @   ",
"  $ T u.d.d.a.7.O.W b z h x x x x x x h h x x x x z x x h h t j J ] #.$.T u @   ",
"  $ T u.d.d.y.;.V t y z x h x x x x x x x x h c x x x x x h t k J  .#.$.T u @   ",
"  $ T u.d.r.5.[ k w y h x x h x h x x x x x x h x x x x x h t l I X.&.&.| i @   ",
"  $ ] u.p.6.+.L k t h x h x x x c h x h x h x x h x x x h h t l ) %.,.<.X.s @   ",
"  $ H 8.0.<.| M j t h x x x x x x h x x x x x h x x h x h h t l ) &.1.1.#.s @   ",
"  $ s $.,.$.| G j t h x x x x x x x x x x x x x x x x x x y t l ) &.1.1.$.i $   ",
"  o u T X.X.] J k t h h x x h x x x x x x x x x x x x x h y t l ) %.1.1.$.s @   ",
"  @ u U X.X.] J j t t g h x x z x h h h h h h x x x h h k t t l ) &.<.1.$.i @   ",
"  @ u T X.X.| J j t t t h h x x x h x c x x x x z x h h t e e l ) %.1.1.$.i @   ",
"  @ u | &.$...L j q e t t h h y h b A W W A N h y h h t t q e k ) &.1.1.+.s @   ",
"  @ i X.,.,.$.I k e q e t t t e l K } @.+.[ K h e t t t t 9 w l / &.<.1.$.s @   ",
"  @ i X.<.<.%.` m j j k j j j j V ' &.<.<.-.' V j j j j j j j m ` %.,.<.X.s @   ",
"  @ i  .&.&.$.{ I K J L J L L I ' %.,.1.4.<.@.' I L J L L K K I | $.&.&. .u @   ",
"  @ u T $.#... .| ] ] ] { | ..$.&.&.,.,.,.-.-.%.@...{ { ] ] { |  .X.#.$.T u @   ",
"  @ u U X.X.| ] Y Y Y Y Y ` o.&.,.#.T H H T #.-.&...` Y Y Y U Y T  .X.X.T u @   ",
"  @ u T X.X.| P n a a v m Z _ %.$.F 1 ; ; < H &.%._ Z m v a a n P | X.X.U u @   ",
"  o u T #.X.| M 0 7 5 0 q h W o.X.f ; @ @ ; f X.o.E h q 8 7 5 r M ] X.X.T u o   ",
"  @ u T #.#.T M 0 4 8 q e h B Q Y G f i i s G ) ~ B h t q 8 4 0 M | X.#.T u @   ",
"  @ u U X.X.] M r 7 e h z x x c C / ..$.$...~ B c c x x h t 7 0 M ] X.#.T u @   ",
"  @ u T #.X.] M 0 8 t h x x x y b Q o.%.%.O.Q c h h x x x t 7 r M ] X.X.T u o   ",
"  @ u T #.X.| M r 8 y x x x x z x B D ! Q D B x h z x x h t 8 r M ] X.X.T u @   ",
"  o u T X.#.T M 0 8 t x x x x x x x x x x c x h x x h c x t 7 0 G T X.X.T u @   ",
"  @ u T #.X.] M 0 7 t x x x x x x z z z h z z z x z x x x g 8 0 M ] X.#.T u o   ",
"  @ u T +.X.{ M r 7 t h x x x x x x x x z z x x x x x x h e 8 0 M ] X.#.T u @   ",
"  @ u T $.$.| M p 7 q g x x x x x x x x x x x c x x x z g q 8 0 G | $.#.T u @   ",
"  @ u T $.$.| G 0 7 8 q h x c x x c x c x x c x c x x g q 7 7 p G | $.$.T u @   ",
"  @ 1 H T | U d 5 2 2 4 8 q t t e e e e e e e e e y e 7 4 2 2 5 d P T ] H 1 @   ",
"f.o : 1 u u 1 < = & & * = - > > > > > > > > > > > > > = * & & = , 1 u u u : @ f.",
"f.f.@ @ @ @ o o . . . . . o X o o X X o o o o X O X X . . . . . o @ @ @ @ o f.f.",
"f.f.f.                                                                    f.f.f."
};
