/* XPM */
static char *result[] = {
/* columns rows colors chars-per-pixel */
"40 40 149 2 ",
"   c #000000",
".  c #0A0606",
"X  c #0D0807",
"o  c #0D0A0A",
"O  c #19100F",
"+  c #121112",
"@  c #1D1716",
"#  c #1E1E1E",
"$  c #201615",
"%  c #241817",
"&  c #251C1B",
"*  c #2B1E1C",
"=  c #321E1C",
"-  c #242424",
";  c #2B2A2A",
":  c #362321",
">  c #3A2826",
",  c #342E2D",
"<  c #323232",
"1  c #3D3D3D",
"2  c #422D2B",
"3  c #492E2C",
"4  c #48312F",
"5  c #4C3533",
"6  c #533634",
"7  c #563836",
"8  c #5A3A36",
"9  c #543E3C",
"0  c #5E3E3A",
"q  c #603C37",
"w  c #633E3B",
"e  c #683D39",
"r  c #56403E",
"t  c #5C423F",
"y  c #65413D",
"u  c #6B423E",
"i  c #434343",
"p  c #4C4D4D",
"a  c #524645",
"s  c #534847",
"d  c #564C4B",
"f  c #5E4D4B",
"g  c #525252",
"h  c #5E5352",
"j  c #5B5A5A",
"k  c #664542",
"l  c #6D4541",
"z  c #674945",
"x  c #6A4945",
"c  c #654E4D",
"v  c #6B4D49",
"b  c #704743",
"n  c #714945",
"m  c #744D49",
"M  c #61504E",
"N  c #78524E",
"B  c #645452",
"V  c #6C5451",
"C  c #665B5A",
"Z  c #6A5E5D",
"A  c #735552",
"S  c #795551",
"D  c #795A56",
"F  c #765C59",
"G  c #7B5F5C",
"H  c #6C605F",
"J  c #72615F",
"K  c #7D615E",
"L  c #656666",
"P  c #6D6362",
"I  c #6C6C6C",
"U  c #766664",
"Y  c #7A6664",
"T  c #796967",
"R  c #766E6D",
"E  c #7D6C6A",
"W  c #747373",
"Q  c #7A7373",
"!  c #7B7B7B",
"~  c #805D59",
"^  c #80625F",
"/  c #826562",
"(  c #846A67",
")  c #8B6A66",
"_  c #806F6C",
"`  c #8F6F6C",
"'  c #82716F",
"]  c #837372",
"[  c #897573",
"{  c #857876",
"}  c #887977",
"|  c #827F7F",
" . c #8B7A78",
".. c #84807F",
"X. c #8F807F",
"o. c #7F8080",
"O. c #848382",
"+. c #898685",
"@. c #8F8887",
"#. c #8D8D8D",
"$. c #958685",
"%. c #9B8582",
"&. c #958D8C",
"*. c #98908F",
"=. c #8F9090",
"-. c #929292",
";. c #9B9594",
":. c #9C9A99",
">. c #A58C89",
",. c #A88E8C",
"<. c #A29392",
"1. c #A49897",
"2. c #A09E9D",
"3. c #AD9E9D",
"4. c #B09997",
"5. c #B09D9B",
"6. c #AEA09E",
"7. c #B6A19F",
"8. c #A4A4A4",
"9. c #A7A8A8",
"0. c #ABACAC",
"q. c #B8A3A0",
"w. c #B0A9A9",
"e. c #AEB0B0",
"r. c #B5B4B4",
"t. c #BCBBBB",
"y. c #C1B9B8",
"u. c #C9BCBB",
"i. c #CEC0BF",
"p. c #C3C3C3",
"a. c #CEC1C0",
"s. c #CBCCCC",
"d. c #D2C3C2",
"f. c #D3CCCB",
"g. c #D9CFCE",
"h. c #DBD0CE",
"j. c #D6D6D6",
"k. c #DFD4D3",
"l. c #DDDDDD",
"z. c #E0D7D7",
"x. c #E2DFDE",
"c. c #E2E2E2",
"v. c #EBE6E5",
"b. c #ECE8E7",
"n. c #EDE9E9",
"m. c #F2EFEE",
"M. c #F4F2F2",
"N. c #FEFEFE",
"B. c None",
/* pixels */
"B.B.B.B.B.B.B.B.B.B.                                        B.B.B.B.B.B.B.B.B.B.",
"B.B.B.B.B.B.B.B.B.B.X X X X X X o + # & # - # # # # # # # # B.B.B.B.B.B.B.B.B.B.",
"B.B.B.B.B.B.B.B.B.@ * : : : = * > d W ! ! ! ! ! ! ! ! O.! I 1 B.B.B.B.B.B.B.B.B.",
"B.B.B.B.B.        $ 3 w k w w w A <.j.c.c.c.c.c.c.c.c.c.l.9.p         B.B.B.B.B.",
"B.B.B.B.# ; ; - @ : 8 n n n S ) >.u.m.N.N.N.N.N.N.N.N.m.k.1.s @ @ - - + B.B.B.B.",
"B.B.B.  ; j L h 5 6 w n u n ) q.g.m.N.N.N.N.N.N.N.N.m.d.,./ a 5 s j p -   B.B.B.",
"B.B.o + 1 ! ;.[ v y u n m ~ >.g.N.N.N.N.N.N.N.N.N.M.z.4.~ u w l U ! L < + o B.B.",
"B.+ ; p I -.2. .m e e m ` 4.a.v.N.N.N.N.N.N.N.N.v.i.4.` m e w v E +.! j 1 ; o B.",
"  + p O.:.8.:.] v w u ~ 4.z.M.N.N.N.N.N.N.N.N.N.h.>.~ m n u y v U ..+.o.I 1 +   ",
"  + g -.e.0.:.' z x / >.u.m.N.N.N.N.N.N.N.M.b.h.7.) l u b l y z U | =.=.! i +   ",
"  + g :.0.0.:.T l ^ 5.g.n.N.N.N.N.N.N.N.N.M.i.>.) N l l l l y z U O.=.=.! i +   ",
"  + p #.9.8.:.[ K X.f.N.N.N.N.N.N.N.N.N.M.z.4.~ u b n b n u u z U +.=.=.! i +   ",
"  + p O.:.-.-.:.7.u.v.N.N.N.N.N.N.N.N.v.i.4.` m u l n b n l y v E #.:.:.O.p +   ",
"  + i ! =.=.:.t.x.M.N.N.N.N.N.N.N.N.N.h.>.^ m n b b n n x u y v ' ;.9.9.=.g +   ",
"  + 1 W =.8.r.j.M.N.N.N.N.N.N.N.M.m.g.5.) l u b b b x b n u y v ] :.9.0.=.g @   ",
"  + 1 ! 8.p.l.M.N.N.N.N.N.N.N.N.M.i.>.) N l u b b n n b n u y v ] :.0.0.=.g +   ",
"  + i +.t.c.N.N.N.N.N.N.N.N.N.M.z.4.~ l n n n n l n n n l k e v ] ;.0.0.#.p +   ",
"  # j 0.l.M.N.N.N.N.N.N.N.N.v.d.4.` n e e l b n n n n l k u w v ] ;.0.0.=.g +   ",
"  # W j.N.N.N.N.N.N.N.N.N.N.g.>.G m n n n n n n n n b k k w w v ' :.9.0.-.p +   ",
"  # ! l.N.N.N.N.N.N.N.N.v.f.4./ l m G / / G A n u k l e w q 0 v ' :.0.0.-.p +   ",
"  # ! c.N.N.N.N.N.N.N.M.u.%.~ x k G  .*.*.$.Y z w y y y w w 8 z ] :.0.0.=.g +   ",
"  # ! c.N.N.N.N.N.N.N.x.3.G z z A } :.9.9.;.{ A z z z z z z k A ] ;.9.9.#.g +   ",
"  # ! c.N.N.N.N.N.M.j.t.*.E J E } *.9.e.e.9.*. ._ T Y U T Y T E | -.:.:.+.p +   ",
"  # ! c.N.N.N.N.N.x.r.-.+.O.+.-.:.2.2.8.8.2.:.:.-.+.O.| | | | O.+.#.=.#.! i +   ",
"  # ! c.N.N.N.c.f.w.+.R R { @.:.8.=.! I I W #.8.2.$.{ Q Q Q R Q ! +.#.#.! 1 +   ",
"  # ! c.N.N.m.y.X.J M c c F [ ;.:.I < - - 1 I :.;.[ F V h f f B R O.#.#.! i +   ",
"  # ! c.N.N.l.<.c 4 5 7 0 l / $.+.j - + + - j @.$./ x w 7 6 5 r H | #.=.! i +   ",
"  # ! c.N.x.r.] 9 3 6 0 e x S ( ] L j p p g P ' ( S l w 0 6 5 9 C O.#.#.W i o   ",
"  # ! c.c.t.#.P a 6 w x l n n m F ] @.=.-.+.] D m n n b l y 6 r Z O.#.=.! i +   ",
"  # I p.s.9.! C 9 7 e l n n b l m ( $.;.;.$.( m l l n n l y 7 9 Z ! #.#.W i +   ",
"  + g -.9.:.| C r 7 e n n n b b n S K ( ( K S n b l n n x y 7 r Z O.#.=.! i o   ",
"  + i ! #.#.| Z 9 7 y n n n n x n n n n n n n n n n n n n y 7 9 C O.#.=.! 1 +   ",
"  + 1 W #.#.| Z 9 7 e x n n n n n b l l l l b n n n b n n k 6 r Z | =.=.W i +   ",
"  + i ! #.#.| Z 9 7 k l n n n n n n b n b b b b b n n n x e 6 9 Z | #.=.! i +   ",
"  + i ! -.=.O.P a 6 w k b n n n n n n n n n n n n n n b x 0 6 9 H O.=.-.! i +   ",
"  + i ! -.-.O.P 9 6 6 0 k n m n m n n m n n m m n m n u 0 6 6 a P O.-.-.! i +   ",
"  + 1 I o.! W h 5 2 2 5 6 0 e y w w y y w w w k e k 0 6 5 2 2 5 h R ! ! I 1 +   ",
"B.o ; 1 p i 1 , * % $ % = : : : : : : : : : : : : : : * % % % * , 1 i i 1 < + B.",
"B.B.o + o + + X o   . . . X o o X o X X X o X X X X X . . . . . o + + + + o B.B.",
"B.B.B.                                                                    B.B.B."
};
