/* XPM */
static char *result[] = {
/* columns rows colors chars-per-pixel */
"40 40 140 2 ",
"   c #000000",
".  c #0A0707",
"X  c #0D0807",
"o  c #0D0909",
"O  c #19100F",
"+  c #111111",
"@  c #1F1615",
"#  c #1D1D1D",
"$  c #211615",
"%  c #241817",
"&  c #251D1C",
"*  c #2C1E1C",
"=  c #321E1C",
"-  c gray13",
";  c #2B2A2A",
":  c #362321",
">  c #3A2826",
",  c #342E2D",
"<  c gray19",
"1  c #3E3E3E",
"2  c #422D2B",
"3  c #492F2C",
"4  c #49312E",
"5  c #4D3533",
"6  c #533634",
"7  c #563836",
"8  c #5C3936",
"9  c #543E3C",
"0  c #5E3E3A",
"q  c #633F3B",
"w  c #56403E",
"e  c #65413D",
"r  c #6B423D",
"t  c #434343",
"y  c #474849",
"u  c #4C4C4C",
"i  c #534746",
"p  c #564C4B",
"a  c #5D4D4C",
"s  c #515151",
"d  c #5E5352",
"f  c #5C5C5C",
"g  c #654642",
"h  c #6D4641",
"j  c #674946",
"k  c #694946",
"l  c #614F4E",
"z  c #6A4C49",
"x  c #704743",
"c  c #714944",
"v  c #744D49",
"b  c #67504E",
"n  c #6F504C",
"m  c #75514E",
"M  c #78524E",
"N  c #635453",
"B  c #6C5552",
"V  c #6A5E5D",
"C  c #735451",
"Z  c #7B5450",
"A  c #755955",
"S  c #715F5D",
"D  c #7C5E5B",
"F  c #6C605F",
"G  c #71605E",
"H  c #7C625F",
"J  c #646464",
"K  c #6E6362",
"L  c #6C6B6B",
"P  c #756462",
"I  c #7E6461",
"U  c #7A6866",
"Y  c #746C6B",
"T  c #7C6D6B",
"R  c #757474",
"E  c #7A7372",
"W  c #7A7A7A",
"Q  c #805D59",
"!  c #836562",
"~  c #8A6966",
"^  c #806E6C",
"/  c #8F6F6C",
"(  c #81716F",
")  c #8E716F",
"_  c #847472",
"`  c #8A7674",
"'  c #8A7977",
"]  c #827F7E",
"[  c #8F7E7C",
"{  c #84807F",
"}  c #8C807F",
"|  c #90807F",
" . c #858382",
".. c #888786",
"X. c #8C8887",
"o. c #8D8D8D",
"O. c #9C8683",
"+. c #918C8C",
"@. c #939393",
"#. c #9B9494",
"$. c #9C9897",
"%. c #9C9B9B",
"&. c #A58C89",
"*. c #A88D8B",
"=. c #A39493",
"-. c #A49C9B",
";. c #AC9B9A",
":. c #B09997",
">. c #B5A19F",
",. c #A4A5A4",
"<. c #A9A3A2",
"1. c #A7A8A8",
"2. c #ABACAC",
"3. c #B0A1A0",
"4. c #B8A3A0",
"5. c #B4B3B3",
"6. c #BCB6B5",
"7. c #B9B9B9",
"8. c #C2B6B5",
"9. c #CABDBC",
"0. c #CEC0BF",
"q. c #C6C6C6",
"w. c #CDC2C1",
"e. c #CACACA",
"r. c #D4CCCB",
"t. c #D9CFCE",
"y. c #DBD0CE",
"u. c #D5D5D5",
"i. c #DADADA",
"p. c #E0D7D7",
"a. c #E2DEDE",
"s. c #E3E3E3",
"d. c #EBE6E5",
"f. c #ECE8E7",
"g. c #E7E8E8",
"h. c #EDEAEA",
"j. c #F2EFEF",
"k. c #F4F3F3",
"l. c #FEFEFE",
"z. c None",
/* pixels */
"z.z.z.z.z.z.z.z.z.z.                                        z.z.z.z.z.z.z.z.z.z.",
"z.z.z.z.z.z.z.z.z.z.X X X X X X X X X X o o o o o o X X X X z.z.z.z.z.z.z.z.z.z.",
"z.z.z.z.z.z.z.z.z.O * : : : : : : : : : : : : : : : : : : * @ z.z.z.z.z.z.z.z.z.",
"z.z.z.z.z.        @ 4 e g q q q e q e q q e q e q q q r q 4 %     .   z.z.z.z.z.",
"z.z.z.z.# ; ; & @ = 8 c v c v c v c v c v c c c c v v c c g i y y y 1 ; z.z.z.z.",
"z.z.z.  ; f L d 5 6 e c v c c c c c c c c c c c c c c r x ! #.5.7.5...1   z.z.z.",
"z.z.. + 1 W #._ z q r c c c c c c c c c c c c x c c c M Q &.r.l.l.k.7.f - o z.z.",
"z.+ < u L @.-.' m r r c c c c c c c c h c c c c r q c / :.9.d.l.l.l.i.,.W u # z.",
"  + y  .%.,.$._ z e r c c h c z c x c x c c c c c r Q :.p.k.l.l.l.l.l.h.e.R #   ",
"  # s @.5.2.%.( z e r c c c c c h c c c c c r c Q ~ &.9.j.l.l.l.l.l.l.l.s.W -   ",
"  + s @.2.2.%.( z e h h h c h c c c x c c x r r ~ :.y.d.l.l.l.l.l.l.l.l.s.W #   ",
"  + u @.1.1.#.( z e h c c c c c c c c x x c v Q &.t.l.l.l.l.l.l.l.l.l.l.u.R #   ",
"  + y ..%.%.o.T z e h h c c c c h c h h q v / :.w.d.l.l.l.l.l.l.l.l.k.g.7.J #   ",
"  + t W @.@. .P j e r c c h h c c c c h x Q :.p.k.l.l.l.l.l.l.l.l.l.h.e.%.s +   ",
"  + t W o.o. .P j e h c c c c c x h h M ~ &.9.j.l.l.l.l.l.l.l.l.k.s.u.7.o.u #   ",
"  + t W o.o. .K j e h c c c h c h r h ~ >.t.h.l.l.l.l.l.l.l.l.k.s.q.5.2.@.u +   ",
"  + 1 W o.o. .P j e h h c c x c c v Q *.t.l.l.l.l.l.l.l.l.l.j.a.q.2.<.<.@.s +   ",
"  + t W o.o.{ P j e e r h c r r v / :.w.d.l.l.l.l.l.l.l.l.d.9.3.-.,.,.2.@.u +   ",
"  + 1 W +.o. .P j e e r h h x h Q :.p.k.l.l.l.l.l.l.l.l.l.r.O.H ' %.2.2.@.u +   ",
"  + y ] $.%.X.U h w w e e r M ~ &.0.k.l.l.l.l.l.l.l.l.d.r.;.D g U $.2.2.o.s +   ",
"  + u o.,.,.@.T z 0 q q q q ! :.t.h.l.l.l.l.l.l.l.l.k.9.| H h j T %.2.2.@.s +   ",
"  + u o.1.1.$._ n j j j j C O.r.l.l.l.l.l.l.l.l.l.l.a.;.D r g n _ #.,.,.o.s +   ",
"  + u  .%.%.@.{ T G G U [ ;.9.d.l.l.l.l.l.l.l.l.j.i.7.#.T S P T ] @.%.%. .u +   ",
"  + y W +.+.o...{ ] { +.5.a.k.l.l.l.l.l.l.l.l.l.a.5.@...{ ] ]  ...o.@.@.W t +   ",
"  + t W o.o. .W E ] #.5.i.k.l.l.l.l.l.l.l.l.k.g.q.#.E E E E E E W  .o.o.W t o   ",
"  o t R o.o. .K N _ 5.a.k.l.l.l.l.l.l.l.l.l.s.e.<.` A b a a a N Y  .o.o.W t +   ",
"  + t W o.o. .K B  .e.l.l.l.l.l.l.l.l.l.k.h.e.<.[ D h q 7 5 5 i V ] o.o.W t +   ",
"  + t W o. .o.X.=.8.a.l.l.l.l.l.l.l.l.k.s.e.<.[ I m h e 0 6 5 7 V  .o.@.R t +   ",
"  + t W o.o.@.6.i.k.l.l.l.l.l.l.l.l.l.s.q.<.[ D v c c c h q 7 9 V  .o.o.W t +   ",
"  + 1 R @.,.5.u.k.l.l.l.l.l.l.l.l.d.t.8.-.| I v h c h c x e 7 9 V  .o.o.W t +   ",
"  + 1 R ,.q.a.j.l.l.l.l.l.l.l.l.k.9.*.) ! D C c h h c c h e 7 w V W o.o.W 1 o   ",
"  + t ..7.s.l.l.l.l.l.l.l.l.l.k.p.:.Q h c c c c c c h v c e 7 9 V  .o.o.W t +   ",
"  + f 5.i.k.l.l.l.l.l.l.l.l.d.9.:./ v q r x x c x x c c c g 7 9 V ] o.o.W 1 +   ",
"  # R u.l.l.l.l.l.l.l.l.l.l.t.&.Q v c c c c x x c c c c h q 7 9 V ] o.@.W t +   ",
"  # W s.l.l.l.l.l.l.l.l.j.y.4.~ x q h c c c c v c c c x g q 7 9 F  .@.o.W y +   ",
"  # W s.l.l.l.l.l.l.l.k.9.*.~ Z c c v v c v v c v v v q 0 7 5 i K ..@.@.W t +   ",
"  # R e.s.s.s.s.s.g.s.u.=.C q q e q e q e q q q q q 0 7 3 2 2 5 d Y W W R 1 +   ",
"z.# s R  .W W W W W W Y a > = = : : : : : : : : : : : = % % % * , 1 t t 1 ; o z.",
"z.z.# # # # - # # - - # + X . X X o X X X X X X X X X X . . . . o + + + + + z.z.",
"z.z.z.                                          .                         z.z.z."
};
