/* XPM */
static char *result[] = {
/* columns rows colors chars-per-pixel */
"40 40 138 2 ",
"   c #000000",
".  c #0A0606",
"X  c #0D0807",
"o  c #0D0A0A",
"O  c #120F0F",
"+  c #19100F",
"@  c #121212",
"#  c #1F1615",
"$  c #1E1D1D",
"%  c #201514",
"&  c #241817",
"*  c #251D1C",
"=  c #2C1E1C",
"-  c #34201E",
";  c #242424",
":  c #2B2A2A",
">  c #362321",
",  c #342E2D",
"<  c #323232",
"1  c #3D3D3D",
"2  c #422D2B",
"3  c #492F2C",
"4  c #48312F",
"5  c #4C3533",
"6  c #4C3E3D",
"7  c #533633",
"8  c #563836",
"9  c #5B3A36",
"0  c #543E3C",
"q  c #5E3E3A",
"w  c #623E3B",
"e  c #683D39",
"r  c #56403E",
"t  c #65413D",
"y  c #6A423E",
"u  c #434343",
"i  c #4C4C4C",
"p  c #534847",
"a  c #5E4D4B",
"s  c #525252",
"d  c #5E5352",
"f  c #5B5B5B",
"g  c #664643",
"h  c #6C4541",
"j  c #674945",
"k  c #694946",
"l  c #654D4B",
"z  c #6B4C49",
"x  c #714642",
"c  c #704844",
"v  c #744D49",
"b  c #61504E",
"n  c #6F504C",
"m  c #645554",
"M  c #6D5451",
"N  c #6A5E5D",
"B  c #735552",
"V  c #7A5652",
"C  c #795A57",
"Z  c #765C59",
"A  c #7D5F5C",
"S  c #6C605F",
"D  c #71605E",
"F  c #7F615E",
"G  c #656666",
"H  c #6D6464",
"J  c #6C6C6C",
"K  c #766563",
"L  c #7B6664",
"P  c #796866",
"I  c #746C6B",
"U  c #7D6D6B",
"Y  c #79706F",
"T  c #737272",
"R  c #7A7372",
"E  c #7A7A7A",
"W  c #805D59",
"Q  c #80625F",
"!  c #816562",
"~  c #886663",
"^  c #846966",
"/  c #876D6B",
"(  c #8F6E6B",
")  c #82716F",
"_  c #91716D",
"`  c #837371",
"'  c #897573",
"]  c #857877",
"[  c #897977",
"{  c #827F7F",
"}  c #84807F",
"|  c #8D817F",
" . c #848282",
".. c #8B8584",
"X. c #8E8887",
"o. c #8D8D8D",
"O. c #958684",
"+. c #938D8D",
"@. c #9E8E8D",
"#. c #98908F",
"$. c #8F9090",
"%. c #929292",
"&. c #9B9595",
"*. c #9C9A9A",
"=. c #A58C89",
"-. c #A9908D",
";. c #A09796",
":. c #AE9997",
">. c #A09E9D",
",. c #B09997",
"<. c #B5A09E",
"1. c #A4A4A4",
"2. c #A7A8A8",
"3. c #ABACAC",
"4. c #BEA9A7",
"5. c #BBB0AF",
"6. c #AEB0B0",
"7. c #B4B3B3",
"8. c #BBBBBB",
"9. c #C0B8B7",
"0. c #CEC0BF",
"q. c #C7C5C5",
"w. c #CFC1C0",
"e. c #CACACA",
"r. c #D0C2C1",
"t. c #D0CBCA",
"y. c #D9CFCE",
"u. c #D5D5D5",
"i. c #DCD5D5",
"p. c #DBDBDB",
"a. c #E0D6D6",
"s. c #E2E2E2",
"d. c #EAE7E7",
"f. c #EEE9E9",
"g. c #F2EDED",
"h. c #F4F3F3",
"j. c #FEFEFE",
"k. c None",
/* pixels */
"k.k.k.k.k.k.k.k.k.k.                                        k.k.k.k.k.k.k.k.k.k.",
"k.k.k.k.k.k.k.k.k.k.O X X X X X X X X X o o o o X X X o X X k.k.k.k.k.k.k.k.k.k.",
"k.k.k.k.k.k.k.k.k.+ = > > > > > > > > > > > > > > > > > > = @ k.k.k.k.k.k.k.k.k.",
"k.k.k.k.k.        % 4 w t t w t t t w t w w w e w w t g w 3 &         k.k.k.k.k.",
"k.k.k.k.$ : : ; # - 9 c v v c v c c v c v v c v c v v v v 9 > # $ ; ; @ k.k.k.k.",
"k.k.k.  : f H d 5 7 t c c v c c c c c c c c c c c c c v x e 7 5 p f i ;   k.k.k.",
"k.k.. @ 1 E &.` z w y c x c c c c c c c c c c c x c h c h h w j P E G < @ . k.k.",
"k.@ < i J %.>.[ n y h c c c c c c c c c c c c c c c c c c h y k U ..E f 1 : O k.",
"  @ i  .*.1.*.` z t y c c c c c c c c h c c c c c x c c x h t j K  . . .J 1 @   ",
"  @ s &.6.3.*.) z t h c c c h c c c c c c c c h c c c c c h t k K } $.$.E u @   ",
"  @ s %.3.3.*.` z t y c c c c c c c c c c h c c c c c c h h t j K } $.$.E u @   ",
"  @ i $.2.2.&.) z t h c c h c c c h c c c c c c c c x c c h t k K ..$.$.E u @   ",
"  @ i  .*.*.o.U k t h h c c c c c c c c c c h c c c c c c h t z U +.*.*...i @   ",
"  @ u E $.$. .P k t h c c c c h c c c h c c c c h c c c c h t z ) &.2.2.$.s @   ",
"  @ u E $.o.{ K j t h h c c c c h c c c c c c c c c c c h h w z ` *.3.3.$.s @   ",
"  @ u E $.o.{ H k t h c c c c c v c c c c c h c c c c c c y t z Y *.3.3.$.s @   ",
"  @ 1 E o.o.} K j t h h c c c c h c c c c c c c c c h v h g t z ) *.3.3.+.s @   ",
"  @ u E o.o.{ K j t t g h c c c c c h h h h c c c c h h h y t z ) *.2.2.o.i @   ",
"  @ u E $.o. .K j t t y h h h c c c c c c c v c x c h h t t q z ` *.3.3.%.s @   ",
"  @ u  .&.&.X.P j q w t t h h y h B F ! F A B h y y h y t 9 w z Y *.6.8.2.f #   ",
"  @ i ..1.1.%.Y k w 9 w t t t w k L | +.+.| L k w t t t t 9 w h / &.8.p.e.T $   ",
"  @ s $.2.2.&.` M j j k j j j j B [ *.2.2.;.[ B h j j z j g j M [ 1.e.h.p.E $   ",
"  @ i  .*.*.%.} U L P P P K P / [ #.2.6.7.2.@.[ U P P K P D S Y *.q.d.j.s.E $   ",
"  @ u E %.$.X... .{ { { {  ...%.*.>.>.1.1.>.*.*.%...} } } } } +.8.d.j.j.s.E $   ",
"  @ u E o.....{ R R R R R ] O.*.1.o.E J J T o.1.*.X.] Y Y } *.7.u.h.j.j.s.E $   ",
"  @ 1 E o.o. .J m a a a m Z ' *.*.G 1 ; ; 1 J *.*.' Z l a R 7.s.h.j.j.j.s.E $   ",
"  o u E $.o. .N 0 5 7 8 w h ! O...f ; @ @ ; f X.O.Q v t n | e.j.j.j.j.j.s.E $   ",
"  @ u E $.o.{ N 0 5 8 q w h V ^ R G f i i s H ` ! v c ! @.9.s.j.j.j.j.j.s.E $   ",
"  @ 1 E o.o.{ N 0 7 t k c c c v C ` X.%.%.X.) C v x W ,.i.h.j.j.j.j.j.j.s.E $   ",
"  @ u E $.o.{ N r 8 t h c c c h v ^ O.&.#.O.! c v ~ -.9.g.j.j.j.j.j.j.j.s.E $   ",
"  @ 1 E $.o.{ S 0 8 t c c c h c c V F ^ ^ Q v x ~ ,.t.f.j.j.j.j.j.j.j.j.s.E $   ",
"  @ u E o.o.{ N r 8 t c c c c c h c c c c v v W =.a.j.j.j.j.j.j.j.j.j.j.u.T $   ",
"  o u E $.o.{ N 0 8 g c c c x c c x x y e v ( ,.9.d.j.j.j.j.j.j.j.j.h.p.6.f $   ",
"  @ u E o.o. .N r 7 t h c c c c c c x h y W ,.a.j.j.j.j.j.j.j.j.j.j.s.8.X.u @   ",
"  @ u E %.$. .H r 8 q g x c v c c x v C ( =.9.g.j.j.j.j.j.j.j.j.h.s.q.1.E 1 @   ",
"  @ u E %.%. .H r 5 8 q h x c v c x v _ 9.y.h.j.j.j.j.j.j.j.j.h.u.8.1.&.E u o   ",
"  @ 1 J E E J d 5 2 2 5 7 q t t w 9 t / 7.p.d.s.s.s.s.s.s.s.d.u.6. .E E J 1 @   ",
"k.o : 1 i u 6 < * & & & = > > > > > > 6 H  . .E E E E E E E E T f u 1 u 1 : @ k.",
"k.k.@ @ @ @ o o . . . . X X X X X X X O # $ $ $ $ $ $ $ ; $ $ $ $ @ @ @ O o k.k.",
"k.k.k.                                                                    k.k.k."
};
