/* XPM */
static char *result[] = {
/* columns rows colors chars-per-pixel */
"40 40 113 2 ",
"   c #000000",
".  c #0A0606",
"X  c #0D0909",
"o  c #19100F",
"O  c #111111",
"+  c #1F1615",
"@  c #1D1D1D",
"#  c #201514",
"$  c #241817",
"%  c #251C1C",
"&  c #2C1D1B",
"*  c #242424",
"=  c #2A2A2A",
"-  c #362321",
";  c #342E2D",
":  c #323232",
">  c #3F3737",
",  c #3D3D3D",
"<  c #422D2B",
"1  c #492F2C",
"2  c #4C312F",
"3  c #4C3432",
"4  c #543634",
"5  c #563836",
"6  c #5A3A36",
"7  c #543E3C",
"8  c #5E3D3A",
"9  c #603C37",
"0  c #623F3B",
"q  c #56403E",
"w  c #5E403D",
"e  c #65413D",
"r  c #6A433F",
"t  c #434343",
"y  c #4C4C4C",
"u  c #534847",
"i  c #5D4D4B",
"p  c #525252",
"a  c #5E5352",
"s  c #5A5A5A",
"d  c #664642",
"f  c #6D4541",
"g  c #674945",
"h  c #6A4946",
"j  c #634E4C",
"k  c #6B4D49",
"l  c #714844",
"z  c #754D49",
"x  c #61504E",
"c  c #6F504C",
"v  c #645554",
"b  c #6C5451",
"n  c #665B5A",
"m  c #6A5E5D",
"M  c #735552",
"N  c #795652",
"B  c #795A56",
"V  c #765C59",
"C  c #7D5F5C",
"Z  c #6C605F",
"A  c #666565",
"S  c #6D6362",
"D  c #6C6D6D",
"F  c #766563",
"G  c #7A6563",
"H  c #796866",
"J  c #746C6B",
"K  c #7D6D6B",
"L  c #747373",
"P  c #7A7373",
"I  c #7A7A7A",
"U  c #80625F",
"Y  c #816562",
"T  c #846A67",
"R  c #82716F",
"E  c #837371",
"W  c #897573",
"Q  c #857877",
"!  c #897977",
"~  c #827F7E",
"^  c #84807F",
"/  c #8D817F",
"(  c #7F8080",
")  c #848282",
"_  c #898686",
"`  c #8E8887",
"'  c #8D8D8D",
"]  c #958684",
"[  c #948D8C",
"{  c #98908F",
"}  c #8F9090",
"|  c #929292",
" . c #9B9594",
".. c #9C9A9A",
"X. c #A09E9D",
"o. c #AEA19F",
"O. c #A4A5A5",
"+. c #A7A8A8",
"@. c #ABABAB",
"#. c #B1ABAA",
"$. c #AEB0B0",
"%. c #B6B3B3",
"&. c #BCBCBC",
"*. c #C3BBBB",
"=. c #C1C1C1",
"-. c #CACBCB",
";. c #D7D0D0",
":. c #DEDDDD",
">. c #E3E3E3",
",. c #EBEAEA",
"<. c #F1EFEF",
"1. c #FEFEFE",
"2. c None",
/* pixels */
"2.2.2.2.2.2.2.2.2.2.                                        2.2.2.2.2.2.2.2.2.2.",
"2.2.2.2.2.2.2.2.2.2.X X X X X X X X X X X X X X X X X X X X 2.2.2.2.2.2.2.2.2.2.",
"2.2.2.2.2.2.2.2.2.o & - - - - - - - - - - - - - - - - - - & o 2.2.2.2.2.2.2.2.2.",
"2.2.2.2.2.        # 2 e e e 0 0 0 0 0 0 0 0 0 0 0 0 0 r 0 1 # .       2.2.2.2.2.",
"2.2.2.2.@ = = * # - 6 l z z l l l z l l z l l l z z l z l 6 - # @ * * O 2.2.2.2.",
"2.2.2.  = s D a 3 2 e l z l l l l l l l z l l l l l l l l 0 2 3 u s y *   2.2.2.",
"2.2.. O , I | W k 0 r l l l l l l l l l l l l l l l l l l r r g G ~ A : O . 2.2.",
"2.O ; y D | X.! z r r l l l l l l l l l l l l l l l l l l f r h J _ I s t = O 2.",
"  O y ) ..O...E k e r l l l l f l l f l l l l l l l l l l r r h F ^ _ ( D , O   ",
"  O p ..$.@...E k e r l l f l l l l l l l f l l l l l l l r e h F ) } } I t O   ",
"  O p | @.@...E k e f l l l l f l f l l l l l l l r l l l f e h F ^ } } I t O   ",
"  O y ' +.O. .R k e r l l l l l l l l l f l f l l l l l l r e g F _ } | I t O   ",
"  O y ) ....' K h e f f l h l l l l f l f l l l l l l l l f e h K ' ....( y O   ",
"  O t I } } ) F h e f l l l l l l l l l l l l l l l f l l r e k K  .+.+.} p +   ",
"  O t I } ' ( F h e f l l l l l l l l l l l l l l l l l f f e k E ..@.@.} p O   ",
"  O t I } ' ) F g e f l l l l l l l h l l l l l l h l l l r e k E ..@.@.} p O   ",
"  O , I ' ' ~ F g e f f l l f l l l l l l l l l l l l l f r e k R ..@.@.' y O   ",
"  O t I ' ' ^ F g e e f f l l l l l r r r l l l r l l l f e 0 k E  .@.@.[ p O   ",
"  O t I ' ' ^ F g 0 0 d f f l l l l l l l l l l l l l r e 0 0 k E ..@.@.} p O   ",
"  O t ( ....` G g 0 0 0 e f f f h z U Y G C N h r r r r e 9 9 k R ..@.@.| y O   ",
"  O y ' O.O.| R g 0 9 0 e e 0 0 h Y ! { { ! G h 0 e e e e 8 8 g E ..@.@.| p O   ",
"  O y ' O.O...E b g g h g g h g M ! X.+.+.X.! M g g g g g g g c E  .O.O.' y O   ",
"  O y ) X...| ^ K F F H F H H K ! | +.@.$.O.{ ! K H F H H H H K ~ | ...._ y O   ",
"  O t I } } ' _ ) ^ ^ ^ ~ ^ ` { ....O.O.O.o.....{ ` ^ ^ ~ ^ ^ ^ _ ' } | I t O   ",
"  O t L ' ' _ I P P P P P Q ` X.O.} I D D L ' O...` I P P P P P ~ _ ' ' I t O   ",
"  O t I ' ' _ J v i i x b V W ..| A , * * , D ....W V c x i i v J ) ' ' L t O   ",
"  X t I } ' I S 7 3 3 5 8 f Y ] ' s = O O * s ` ] U f 0 5 4 3 q S I ' ' I t X   ",
"  O t I } ' ~ m 7 3 5 8 0 f N T E A p y y p S E T N f e 8 5 2 7 m ~ ' ' L t O   ",
"  O t I ' ' ) m 7 4 0 f f l l z B E ` | } ` R B z l l l f 0 4 7 m ^ ' } I t O   ",
"  X t I } ' ~ m q 5 d f l l l f z T ] |  .] T z f l l l h r 5 q n ~ ..O...p O   ",
"  O t I } ' I S 7 6 0 l l l l f l N Y T T U N l l l l l h e 5 7 n I O.-.=.D @   ",
"  O t I ' ' ~ m 7 4 r l l l l l l l l l l l l l f l l l l e 4 q S ' &.,.:.( @   ",
"  X t I } ' ) m 7 5 e l l l l l l l f r f l l l l l l l l 0 4 7 Q %.:.1.>.I @   ",
"  O t I ' ' ~ m 7 5 e f l l l l l l l l l l l l l l l l f 0 4 j  .:.1.1.>.I @   ",
"  O t I | | ) Z q 4 8 d l l l l z l l l l l l l l l l r f k C ] *.<.1.1.>.I @   ",
"  O t I | | ) S u 4 4 8 f l z l l l z l l l z l z z l 0 0 G O.;.,.1.1.1.>.I @   ",
"  O t D I I L a 3 < < 2 4 8 e e 0 0 0 0 0 0 0 0 0 0 9 2 1 V #.:.>.>.,.,.-.L @   ",
"2.X = , y t , ; * $ $ $ & - - - - - - - - - - - - - - & % > A ( ) I I ~ L y @ 2.",
"2.2.O O X O O X . . . . . X X X X X X X X X X X X X X X X X @ @ @ @ @ @ @ @ 2.2.",
"2.2.2.                                          .                         2.2.2."
};
