/* XPM */
static char *c82d6bf970214c3aa97cc0c321d41c0fWY12qaDOCcSAnLjN[] = {
/* columns rows colors chars-per-pixel */
"40 40 133 2 ",
"   c None",
".  c #030205",
"X  c #070807",
"o  c #060608",
"O  c #080709",
"+  c #070809",
"@  c #0A0B0A",
"#  c #140D0D",
"$  c #190E0E",
"%  c #0E120C",
"&  c #11160E",
"*  c #19110F",
"=  c #131A0F",
"-  c #171710",
";  c #1C1310",
":  c #151C10",
">  c #221512",
",  c #261914",
"<  c #291A15",
"1  c #341E18",
"2  c #172012",
"3  c #1A2313",
"4  c #1F2A16",
"5  c #222716",
"6  c #292717",
"7  c #212D16",
"8  c #332119",
"9  c #3B241C",
"0  c #332C1B",
"q  c #26351A",
"w  c #28371B",
"e  c #2B3C1C",
"r  c #33341C",
"t  c #333F1E",
"y  c #3D3720",
"u  c #442B1F",
"i  c #4C2D21",
"p  c #483823",
"a  c #543225",
"s  c #593727",
"d  c #5A3728",
"f  c #5D3928",
"g  c #663D2B",
"h  c #683F2C",
"j  c #2F411E",
"k  c #314520",
"l  c #354A22",
"z  c #394E24",
"x  c #375223",
"c  c #3B5325",
"v  c #3D5927",
"b  c #404723",
"n  c #444D26",
"m  c #494B27",
"M  c #4C4C28",
"N  c #544729",
"B  c #5C452B",
"V  c #544A29",
"C  c #5C4E2C",
"Z  c #425126",
"A  c #455629",
"S  c #4A5229",
"D  c #435D2A",
"F  c #4C5F2D",
"G  c #57562D",
"H  c #5A532D",
"J  c #535C2E",
"K  c #575F30",
"L  c #63422C",
"P  c #6C422E",
"I  c #634D2E",
"U  c #684A2F",
"Y  c #6E4D31",
"T  c #774732",
"R  c #744631",
"E  c #724430",
"W  c #704931",
"Q  c #754D33",
"!  c #764C33",
"~  c #774C33",
"^  c #764D33",
"/  c #784833",
"(  c #794833",
")  c #784C33",
"_  c #7B4934",
"`  c #7A4A34",
"'  c #7C4934",
"]  c #7C4A34",
"[  c #7C4B34",
"{  c #7D4B35",
"}  c #7F4B35",
"|  c #784D34",
" . c #7A4D34",
".. c #7C4C35",
"X. c #7D4C35",
"o. c #7E4C35",
"O. c #7F4C35",
"+. c #6D5232",
"@. c #695432",
"#. c #625931",
"$. c #705433",
"%. c #735234",
"&. c #715534",
"*. c #43622B",
"=. c #44602B",
"-. c #44622B",
";. c #47612C",
":. c #45612C",
">. c #4D612E",
",. c #48652D",
"<. c #4A662E",
"1. c #4E652F",
"2. c #4C662E",
"3. c #49662E",
"4. c #46692D",
"5. c #49692E",
"6. c #4A692F",
"7. c #4C682F",
"8. c #4B692F",
"9. c #4D6C30",
"0. c #5A6031",
"q. c #5B6131",
"w. c #5A6231",
"e. c #804A35",
"r. c #814B36",
"t. c #804C35",
"y. c #804C36",
"u. c #804D36",
"i. c #814E36",
"p. c #824E36",
"a. c #824E37",
"s. c #824F37",
"d. c #834F37",
/* pixels */
"                                                                                ",
"                                                                                ",
"                                  .                                             ",
"                              o o O O O O O + o O O O                           ",
"                            # ; > , , , < < < < , > ; $                         ",
"                          . ; 9 i a d d s d d s a i i < @                       ",
"                        @ # , i P T ` { { X.{ X.` R g 9 ; @                     ",
"              . o     O > 1 i g T X.u.s.u.s.u.d.X.` E a 9 < $ .     o .         ",
"          o o o o o o # 8 a g R [ o.o.o.o.o.o.o.X.X.( P g u > O o . + X o       ",
"          o + % : : : 4 y B Y ^ o.u.t.o.o.t.o.t.u.u.{ { P d 0 2 2 : & @ o       ",
"          . @ 2 q j l z A J #.%.o.u.t.u.u.u.t.t.r.u.r.{ ` U M l j j 7 & o       ",
"          o @ 4 j c D ,.5.9.0.&.o.[ ) ! ! ! ! ! ^ ^ ^ ` ! +.J <.v l q = +       ",
"            @ : 7 e c *.4.9.0.&.) U I H C C C C C C C C C G >.D k q 2 &         ",
"              + % 3 e c *.3.0.+.! I S Z c Z n Z Z Z Z Z Z Z Z l q = @           ",
"              . o - r n F <.K +.E C n x x c z x c c c c x z j w 2 @             ",
"              . o ; i N K 3.K Y P N c x c x c x x z x c x j 7 = %               ",
"              . X > i L H >.J C B V Z x l l z c c v c c l q - o o               ",
"              . O > i L H D A M M S A z q 7 e v D D Z k 7 : @ . .               ",
"              . O > i g V Z c c Z D -.z 4 : w D 9.9.D e : @ + o o               ",
"              . O > i L B M n z c *.,.c q 4 k ;.9.9.<.k 4 % @ o .               ",
"              . O > i h h B N b v D ,.;.v z D ,.9.9.3.D z q : o .               ",
"                O > u f g g B n c D 5.8.8.,.8.8.6.6.6.9.4.l 2 o .               ",
"                  ; < 9 a g L m c D 5.8.8.9.9.8.6.6.9.9.9.z 3 o .               ",
"                    @ ; 9 s B m c -.,.8.8.8.8.8.6.6.9.9.6.l 3 + .               ",
"                      @ < i p z c D ,.9.9.9.9.9.9.9.9.9.7.l 3 o .               ",
"                        $ > 6 t c D 9.9.9.9.9.9.9.9.9.9.9.l 3 o .               ",
"                        . O : e c *.,.,.;.D D D D D D 3.;.l 3 o .               ",
"                        . . : q c D D c k q q q q q e z D l : O .               ",
"                        . + = w z v c e 3 % % % % % : w l e : O                 ",
"                        . + = e z l e 7 % . . . + % : 7 q 4 - o                 ",
"                        . X = j z w 2 & X . . o % 7 w 4 : - @ .                 ",
"                        . X = q j 7 % . .   . + : w e 4 % . .                   ",
"                        . o % 2 4 = X .     . + & 3 7 = + .                     ",
"                        . o + @ @ X         . + + @ @ @                         ",
"                        . . . . . .         . . . . . o                         ",
"                          X . . X             . . . .                           ",
"                                                                                ",
"                                                                                ",
"                                                                                ",
"                                                                                "
};
