/* XPM */
static char *result[] = {
/* columns rows colors chars-per-pixel */
"40 40 86 1 ",
"  c #030305",
". c #070807",
"X c #060708",
"o c #080709",
"O c #070809",
"+ c #0A0B0A",
"@ c #140D0D",
"# c #190E0E",
"$ c #0E120C",
"% c #11160E",
"& c #19110F",
"* c #131A0F",
"= c #171710",
"- c #1C1310",
"; c #151C10",
": c #221512",
"> c #261914",
", c #291A15",
"< c #341E18",
"1 c #172012",
"2 c #1A2313",
"3 c #1F2A16",
"4 c #222716",
"5 c #292717",
"6 c #212D16",
"7 c #332119",
"8 c #3B241C",
"9 c #332C1B",
"0 c #26351A",
"q c #28371B",
"w c #2B3C1C",
"e c #33341C",
"r c #333F1E",
"t c #3D3720",
"y c #442B1F",
"u c #4C2D21",
"i c #483823",
"p c #543225",
"a c #593727",
"s c #5A3728",
"d c #5D3928",
"f c #663D2B",
"g c #683F2C",
"h c #2F411E",
"j c #314520",
"k c #354A22",
"l c #394E24",
"z c #375223",
"x c #3B5325",
"c c #3D5927",
"v c #404723",
"b c #444D26",
"n c #494B27",
"m c #4C4C28",
"M c #544729",
"N c #5C452B",
"B c #544A29",
"V c #5C4E2C",
"C c #425126",
"Z c #455629",
"A c #4A5229",
"S c #435D2A",
"D c #4C5F2D",
"F c #57562D",
"G c #5A532D",
"H c #535C2E",
"J c #575F30",
"K c #63422C",
"L c #6C422E",
"P c #634D2E",
"I c #684A2F",
"U c #6E4D31",
"Y c #744631",
"T c #764D33",
"R c #7D4B35",
"E c #6B5332",
"W c #625931",
"Q c #715434",
"! c #45612C",
"~ c #4A662E",
"^ c #46692D",
"/ c #4B692F",
"( c #4D6C30",
") c #5A6131",
"_ c #814D36",
"` c None",
/* pixels */
"````````````````````````````````````````",
"````````````````````````````````````````",
"````````````````` ``````````````````````",
"```````````````oooooX+OOooo`````````````",
"``````````````@-:>>,,,,,>::-````````````",
"````````````` -8upsdssddpuu,+```````````",
"````````````+@>uLYRRRRRRYYd8-+``````````",
"```````  ``o:<ufYR__R___RRYp8,# ``X ````",
"`````XXXXX %<pfYRRRRRRRRRRYYdu-o O. O```",
"`````XO$;;;4tNUTR_________RRYs921;*+X```",
"````` +1qhklZJWQR__________RRInkjw6%O```",
"`````X+3hlS~(/)QRRTTTTTTTTTRTEJ!ck0*X```",
"``````+;6wz!^^)QTTPVVVVVVVVVVFDSj01%````",
"```````O+2tx!^)ETPnxxCCCCCCCCCxk0*+`````",
"``````` X=ebD~JELVxzzxzllzzxxkjq1+``````",
"``````` X-iMJ~JUIMbzzxxxzlxxzh4;$```````",
"``````` o:uKG~HVKBCzkkkxxZxxk0%o ```````",
"``````` o:uKVSZmmASl06hx!!cj6;OX````````",
"``````` X:ufBCxxCS!k3;qS/(Sw;OOo````````",
"``````` o:uKNmblx!~x03j!((!j3%+X````````",
"``````` o:ufLNMvx!~!xzS/((~Slq;X````````",
"````````o:udffMnx!//////~(((~k;X````````",
"`````````-,8pfNnxS~/////^((((l2O````````",
"``````````+-8dNnx!~/////(~((~k2O````````",
"```````````+,uivxc~((((((((((k1O````````",
"````````````#:5rx!~((((((((((k2O````````",
"```````````` X;qx!~~SSSSSSS~~k2o````````",
"````````````  ;qxSSxjq0000qlcj;o````````",
"```````````` O*wxxxh2%$$$$;qkw;O````````",
"```````````` .;wlkw6$   O$;6q6=o````````",
"````````````  ;wlq1%.   %3q6;%+ ````````",
"```````````` X*0h6$  ` O*0w3$  `````````",
"```````````` X$13*+ `` O%23*O ``````````",
"```````````` XO+++```` OO+$+````````````",
"````````````      ````      ````````````",
"`````````````.   ``````    `````````````",
"````````````````````````````````````````",
"````````````````````````````````````````",
"````````````````````````````````````````",
"````````````````````````````````````````"
};
