/* XPM */
static char *d6570d345fa84a3bd12eaf3acf9d6471SMMooI9BeJC8AZzq[] = {
/* columns rows colors chars-per-pixel */
"40 40 131 2 ",
"   c None",
".  c #020305",
"X  c #070807",
"o  c #060608",
"O  c #080709",
"+  c #070809",
"@  c #0A0C0A",
"#  c #130E0D",
"$  c #0E110C",
"%  c #11150D",
"&  c #1B110F",
"*  c #13190F",
"=  c #1C1410",
"-  c #161C11",
";  c #221612",
":  c #2A1C15",
">  c #321F18",
",  c #1A2313",
"<  c #1E2915",
"1  c #2A2617",
"2  c #212D17",
"3  c #36211A",
"4  c #3B241B",
"5  c #382A1C",
"6  c #26351A",
"7  c #28371B",
"8  c #2C3C1C",
"9  c #39311E",
"0  c #333F1F",
"q  c #3F3C22",
"w  c #41281E",
"e  c #472D20",
"r  c #4C2D21",
"t  c #473722",
"y  c #4F3123",
"u  c #543225",
"i  c #5A3627",
"p  c #5C3B28",
"a  c #643D2B",
"s  c #693F2D",
"d  c #2F411E",
"f  c #314420",
"g  c #3F4623",
"h  c #354A22",
"j  c #3A4E24",
"k  c #375123",
"l  c #3B5225",
"z  c #3F5828",
"x  c #414725",
"c  c #444E26",
"v  c #4B4B27",
"b  c #4E4D29",
"n  c #554628",
"m  c #5E442B",
"M  c #554B2A",
"N  c #5B4B2B",
"B  c #425226",
"V  c #435528",
"C  c #4D5129",
"Z  c #425C2A",
"A  c #4B5B2C",
"S  c #57522D",
"D  c #5A532D",
"F  c #545B2E",
"G  c #59582E",
"H  c #5D5D31",
"J  c #63422C",
"K  c #6C422E",
"L  c #624C2E",
"P  c #684D2F",
"I  c #6F4430",
"U  c #6A4D30",
"Y  c #724530",
"T  c #794732",
"R  c #734B32",
"E  c #764C33",
"W  c #784833",
"Q  c #7A4933",
"!  c #784A33",
"~  c #7A4B34",
"^  c #7C4A34",
"/  c #7C4B34",
"(  c #7D4B34",
")  c #7E4B35",
"_  c #7F4B35",
"`  c #784D34",
"'  c #7B4D34",
"]  c #7D4C35",
"[  c #7E4C35",
"{  c #7F4C35",
"}  c #7E4D35",
"|  c #7F4D35",
" . c #625630",
".. c #6A5031",
"X. c #6B5031",
"o. c #685431",
"O. c #715333",
"+. c #705433",
"@. c #765034",
"#. c #705534",
"$. c #715534",
"%. c #46602B",
"&. c #46612C",
"*. c #44652C",
"=. c #47662D",
"-. c #46622C",
";. c #48622D",
":. c #4E632E",
">. c #49662D",
",. c #4B662E",
"<. c #4D652F",
"1. c #4E642E",
"2. c #49662E",
"3. c #4A682E",
"4. c #4B692F",
"5. c #486A2E",
"6. c #4B692F",
"7. c #54612F",
"8. c #4D6C30",
"9. c #596030",
"0. c #5B6131",
"q. c #5A6231",
"w. c #5B6231",
"e. c #804A35",
"r. c #804C36",
"t. c #814C36",
"y. c #804D36",
"u. c #814D36",
"i. c #814E36",
"p. c #824E36",
"a. c #824E37",
/* pixels */
"                                                                                ",
"                                                                                ",
"                                                                                ",
"                                                                                ",
"                                                                                ",
"                              . . . . . . . . . . . o                           ",
"                              # # # # % # # # # # # # @                         ",
"                            & : 3 4 4 w 4 e 4 e 4 4 > ; @                       ",
"                          @ ; w p K K Y I Y Y Y I a u > # .                     ",
"                        # ; 4 i Y ' r.a.r.a.a.r.] W s e : &                     ",
"          o o o . . . O : w i K T e.r.a.r.a.r.r.] ) Y a u 3 = . . . . . o       ",
"          o o @ @ @ $ = 5 p I ! ' r.] ] ] ] ] ] ] ] ) W s y : % $ $ @ + o       ",
"          o @ * < 6 6 8 x S o.@.r.r.r.r.r.r.r.r.r.r.r.) T J q 7 6 < , $ o       ",
"          . $ , d j z Z ;.1.H O.' e.] ] ] ] ] ] ] ] ] ] ~ U F Z l h 6 * o       ",
"            @ , 7 h Z *.5.8.H $.' R U P U U U U U U U U U  .F -.l d 2 % +       ",
"              % - 2 h z *.5.q.$.E P M S C C C C C b C b b A A l 8 , - $         ",
"              . @ * 8 z %.,.w.+.R N V l l l l l j l l l l j j d < @ o           ",
"              . o & 5 M A 1.9.X.K M l k k k l k k j k k k h 7 < - +             ",
"              . X = w J G 7.F L J n c k j l l l k j k l j 8 , @ @               ",
"              . @ ; r J D ;.A M n b V j d 8 h l Z z z h 8 < $ o                 ",
"              . O ; r a M V z c V A Z j 2 , 8 Z *.,.Z 8 , $ X o                 ",
"              . O ; r a N c j j B Z =.j 2 * 8 Z 8.8.-.8 * @ X o                 ",
"              . + ; r K J M v j l %.*.Z f 8 l ;.8.8.-.l 8 , $ o                 ",
"                o ; r a K a n x l %.=.=.%.Z -.5.8.8.8.,.Z f - o                 ",
"                @ = 3 r r r t g l Z ,.8.8.8.8.8.8.8.8.8.8.h , @                 ",
"                  # ; ; ; ; 1 0 l Z ,.8.8.8.8.8.8.8.8.8.8.h , +                 ",
"                    o o O O - 8 l -.*.,.;.Z Z Z Z Z Z ,.2.h , O                 ",
"                      . . . - 8 l Z Z l f 8 6 7 6 6 8 h z f - O                 ",
"                        . + * 8 l z k d , $ $ $ $ @ * 7 h 8 - +                 ",
"                        . X * 8 j h 8 < $ . . . @ % - 2 7 2 - +                 ",
"                        . + * d j 7 , % X . . o % 2 7 2 - % @ .                 ",
"                        . o * 6 d < $ . .   . X * 6 d 2 @ . .                   ",
"                        . o $ - 2 * X .     . o $ , < - @ .                     ",
"                        o o @ @ @ X         . o X @ @ @                         ",
"                        . . o . . .         o o . . o .                         ",
"                          . . . .             . . . .                           ",
"                                                                                ",
"                                                                                ",
"                                                                                ",
"                                                                                "
};
