/* XPM */
static char *_679b17144c54eb5ac22442610878fb7F14bSaErNUx5ruDN[] = {
/* columns rows colors chars-per-pixel */
"40 40 130 2 ",
"   c None",
".  c #030205",
"X  c #070807",
"o  c #060608",
"O  c #080709",
"+  c #070809",
"@  c #0A0B0A",
"#  c #140D0D",
"$  c #190E0E",
"%  c #0E110C",
"&  c #11150E",
"*  c #19110F",
"=  c #131A0F",
"-  c #1C1310",
";  c #151C10",
":  c #221512",
">  c #261914",
",  c #291A15",
"<  c #341E18",
"1  c #1A2313",
"2  c #1F2A16",
"3  c #222716",
"4  c #292717",
"5  c #212C16",
"6  c #2B2818",
"7  c #322018",
"8  c #3B241C",
"9  c #332C1B",
"0  c #27351A",
"q  c #28371B",
"w  c #2B3C1C",
"e  c #333F1E",
"r  c #3D3720",
"t  c #442A1F",
"y  c #4C2D22",
"u  c #473722",
"i  c #483823",
"p  c #533225",
"a  c #593727",
"s  c #583A27",
"d  c #5A3728",
"f  c #5E3929",
"g  c #663D2B",
"h  c #683F2C",
"j  c #2E411E",
"k  c #324420",
"l  c #354A22",
"z  c #3A4E24",
"x  c #375123",
"c  c #3A5224",
"v  c #404723",
"b  c #4F4727",
"n  c #454C26",
"m  c #4A4A27",
"M  c #4C4D29",
"N  c #504728",
"B  c #5B452A",
"V  c #564A2A",
"C  c #5C4E2C",
"Z  c #415026",
"A  c #46572A",
"S  c #495028",
"D  c #435C2A",
"F  c #4B5E2C",
"G  c #57562D",
"H  c #5A532D",
"J  c #525B2D",
"K  c #575F30",
"L  c #63422C",
"P  c #6C422E",
"I  c #634D2E",
"U  c #684B2F",
"Y  c #6E4D31",
"T  c #744631",
"R  c #704931",
"E  c #754D33",
"W  c #764C33",
"Q  c #774C33",
"!  c #764D33",
"~  c #784833",
"^  c #794833",
"/  c #784C33",
"(  c #7B4934",
")  c #7A4A34",
"_  c #7C4934",
"`  c #7C4A34",
"'  c #7C4B34",
"]  c #7D4B35",
"[  c #7F4B35",
"{  c #784D34",
"}  c #7A4D34",
"|  c #7C4C35",
" . c #7D4C35",
".. c #7E4C35",
"X. c #7F4C35",
"o. c #6D5232",
"O. c #6A5532",
"+. c #625931",
"@. c #705433",
"#. c #735234",
"$. c #715534",
"%. c #42602A",
"&. c #43622B",
"*. c #47642D",
"=. c #45622C",
"-. c #4D612E",
";. c #4B652E",
":. c #4A662E",
">. c #4E652F",
",. c #49662E",
"<. c #46692D",
"1. c #4A692F",
"2. c #4A6B2F",
"3. c #4C682F",
"4. c #4B692F",
"5. c #4D6C30",
"6. c #576030",
"7. c #5A6031",
"8. c #5B6131",
"9. c #5A6231",
"0. c #804A35",
"q. c #814B36",
"w. c #804C35",
"e. c #804C36",
"r. c #804D36",
"t. c #814E36",
"y. c #824E36",
"u. c #824E37",
"i. c #824F37",
"p. c #834F37",
/* pixels */
"                                                                                ",
"                                                                                ",
"                                  .                                             ",
"                              O o O O O O o @ o O O O                           ",
"                            # - : > > > , , , , > > : *                         ",
"                          . - 8 y p d d d d d a p y t , @                       ",
"                        @ # > y P ~ ) ] ] ) ] ..) R f 8 - @                     ",
"                      O : < y g T ..r.i.i.i.i.r.q._ T p 8 , $                   ",
"                    . & < p g R _ X.............] ] ^ P g t : @                 ",
"                  % ; 3 r B Y E X.r.r._ r.....q.q.r.] _ P a 9 1 =               ",
"                . ; w z A K +.$.X.q.q.r.q.r.r.r.r.r.r.q.) U m k 2 @             ",
"              + @ 2 l =.5.>.K $.../ W ! ! ! ! / Q Q W / W O.K D w = @           ",
"            @ 1 5 w c *.<.5.8.$./ R I H H C C C C C C H C G F D l 0 1 &         ",
"          . @ 2 e z c c %.*.K $.! I S Z Z n Z Z Z Z n Z Z Z Z c l l 0 = o       ",
"          o @ ; 0 k v n F *.K o.R V c x x x x x x x c x x l j w w w 5 & o       ",
"          o + % ; 6 u B K *.K Y P V n x z c x c c c c c x j 2 ; ; ; & @ o       ",
"          + o . O > y L H -.J C B b c x c c c c z c c c c w ; + . O O o o       ",
"            . . . > t L H A A M b n z c c c c c x z c c c e ; o . .   o         ",
"              . O : y L V Z c c Z c c c x x c c c c c c z w ; o .               ",
"              . O : y L B M n z c c Z z j e l c c D c l w 2 % o .               ",
"              . O : y h P B b v c %.&.l 5 1 w c *.5.c w 1 @ @ o o               ",
"                O : t g g g B n c &.,.l 5 ; w F 5.5.*.e ; @ + o o               ",
"                  $ , 8 p g L m c &.4.D k w z ,.5.5.=.c w 1 % + .               ",
"                    # $ 8 d B m Z %.,.4.&.D *.,.5.5.1.1.D k ; o .               ",
"                      @ , y u z c D *.5.5.5.5.5.<.5.5.5.5.z 1 + .               ",
"                        $ : 4 e c D 5.5.5.5.5.5.5.5.5.5.5.l 1 + .               ",
"                        . o ; w c %.*.*.=.F D D D D D 1.*.l ; O .               ",
"                        . . ; 0 c D %.c k q 0 q 0 0 w l c k 1 O .               ",
"                        . . ; w c c c k 1 % % % % % ; 0 z j ; +                 ",
"                        . @ = w c l w 2 % . . . @ % ; 5 q 2 = +                 ",
"                        . o ; w l w 1 & X . . . % 5 w 5 ; & @ .                 ",
"                        . + ; 0 j 5 @ . .   . o ; 0 w 2 % . .                   ",
"                        . o % 1 2 = X .     . . & 1 2 ; + .                     ",
"                        o o + @ @ @         . @ @ @ @ @                         ",
"                        . . . . . .         . . . . . .                         ",
"                          . . . .             . . . .                           ",
"                                                                                ",
"                                                                                ",
"                                                                                ",
"                                                                                "
};
