/* XPM */
static char *_4e1cce60c39423ca7fb39d4b5ea9986YUzCRcAw1xbfZ6EL[] = {
/* columns rows colors chars-per-pixel */
"40 40 127 2 ",
"   c None",
".  c #3F1E19",
"X  c #3F201C",
"o  c #40211E",
"O  c #432421",
"+  c #482723",
"@  c #4C2925",
"#  c #462D2E",
"$  c #542B26",
"%  c #562E2A",
"&  c #582D28",
"*  c #5B312D",
"=  c #463236",
"-  c #60342F",
";  c #643631",
":  c #6B3731",
">  c #663833",
",  c #6D3B36",
"<  c #673F3A",
"1  c #7A3E37",
"2  c #793F39",
"3  c #72433E",
"4  c #7B423C",
"5  c #4E3D44",
"6  c #4A4049",
"7  c #504956",
"8  c #5E4B54",
"9  c #59515F",
"0  c #694540",
"q  c #724540",
"w  c #754944",
"e  c #74524D",
"r  c #7B524E",
"t  c #63515B",
"y  c #745552",
"u  c #7A5551",
"i  c #7E5B57",
"p  c #7F5C58",
"a  c #434F65",
"s  c #445066",
"d  c #485165",
"f  c #4B576E",
"g  c #4C586F",
"h  c #575669",
"j  c #4E5B72",
"k  c #505C72",
"l  c #645561",
"z  c #6B5967",
"x  c #6E5D6B",
"c  c #705C63",
"v  c #57637A",
"b  c #5C677D",
"n  c #6D606C",
"m  c #75616E",
"M  c #776571",
"N  c #736977",
"B  c #786971",
"V  c #736F7E",
"C  c #9A544C",
"Z  c #815C58",
"A  c #806764",
"S  c #896D6A",
"D  c #836B76",
"F  c #8C7371",
"G  c #837079",
"H  c #576580",
"J  c #5E6780",
"K  c #5B6882",
"L  c #626F87",
"P  c #606F8C",
"I  c #667186",
"U  c #62718E",
"Y  c #69758B",
"T  c #647390",
"R  c #6A7591",
"E  c #6C7A97",
"W  c #6E7E9E",
"Q  c #707B90",
"!  c #727F98",
"~  c #6E7FA0",
"^  c #758195",
"/  c #7D8595",
"(  c #71809D",
")  c #7A869D",
"_  c #7F8A9F",
"`  c #6F80A1",
"'  c #7282A2",
"]  c #7D8AA2",
"[  c #878180",
"{  c #8C8786",
"}  c #8D8C8B",
"|  c #958180",
" . c #868F9D",
".. c #949594",
"X. c #91939D",
"o. c #A49D9D",
"O. c #818DA5",
"+. c #818FAC",
"@. c #8593AE",
"#. c #8895AF",
"$. c #8A96B1",
"%. c #8C98B2",
"&. c #8C99B2",
"*. c #8D9AB4",
"=. c #929EB6",
"-. c #949FB4",
";. c #94A0B8",
":. c #94A1B9",
">. c #9AA4B8",
",. c #9DA7BB",
"<. c #99A5BC",
"1. c #9CA7BD",
"2. c #9BA5B9",
"3. c #9CA8BF",
"4. c #9EA8BE",
"5. c #9FAABF",
"6. c #A6A1A1",
"7. c #A7A2A1",
"8. c #A8A7A7",
"9. c #A7AAAA",
"0. c #A9A8A8",
"q. c #ABAAAA",
"w. c #AEB0B0",
"e. c #9AA8C0",
"r. c #A1ABC1",
"t. c #A2ADC2",
"y. c #A2ADC3",
/* pixels */
"                                                                                ",
"                                                                                ",
"                                                                                ",
"                                                                                ",
"                                                                                ",
"                                #.#.#.#.#.#.#.#.                                ",
"                                #.#.#.#.#.#.#.#.                                ",
"                    #.#.#.$.  f ] #.#.#.#.#.#.] g   $.#.#.#.                    ",
"                  #.#.#.#.$.O.j ) ;.;.;.=.=.:.) g O.$.#.#.#.#.                  ",
"                  $.#.#.#.#.O.f O.y.5.5.r.r.y.O.j O.$.#.#.#.#.                  ",
"s ^ $.$.#.#.$.L v #.#.#.#.$.O.f Y ] ' ' ' ' ' R f ] %.#.#.#.#.v L $.#.#.$.%.( s ",
"s ( $.#.#.#.$.I b 5.5.5.5.r.-.j K ` W W ` ( ~ P j -.r.5.5.5.5.b L #.#.#.#.$.( s ",
"s ! $.$.#.#.#.I v $.$.$.%.*.+.f T ` ` ` ~ ~ ' P f +.*.%.*.$.#.v I %.#.#.$.$.! s ",
"s ) :.=.=.=.:.Y j W W W W W E f T ' ` ` ~ ' ' T f E ~ ~ W W W j Y :.=.=.=.:.) s ",
"s O.y.e.5.y.y.R j W ~ W W ~ E d b E E R R R R b a E ~ ! W W W j R y.r.r.e.y.O.s ",
"s T ] ' ' ' ] K j W W W W W R = # # # # # # # # = R W W W W W j K ] ' ' ' ] T s ",
"d P ~ W ~ ~ ~ h = 5 5 5 5 5 5 O . . o o o o o o O 5 5 5 5 5 5 = h ~ ~ W W ~ U a ",
"s R ~ ~ ~ ~ ~ 9 X X o X X X X O O o O O o O o o o X X X o o X X h ' ' ~ ' ' T s ",
"s H P P T P T d X o o o O o O + O O + + + + O O O O O O o O o o 7 T T K K T H a ",
"a g k k k k k 5 O O O O O O + % + @ * % * * @ + % O O O O O O o 6 j j j k k f a ",
"s ] 2.-.=.-.r.M % % % + + % % % + @ * * * * @ + * % % @ O % % % N 1.>.1.>.,.] s ",
"s ! @.+.+.+.@.x $ % % + % , : > * * > > > > * * > , > % O * * % N ] ] @.+.#.E s ",
"d P ~ ~ ~ E ~ z - - - $ - , , , - > , , , , > ; , , , ; % > ; - z ~ ~ ~ W W P s ",
"a T ~ ~ ~ ~ ~ N r y Z < > , , , - ; , , , , > - , , > ; ; > , , x ~ ~ ! W ~ U s ",
"a P ~ ~ ~ ~ ~  .} ..8.y - , , , - ; , , , , ; - > , , ; ; , , , x ` W W ~ ' U s ",
"d P ~ ! ~ ~ ! Q ..0.q.y ; , , , - , , , , , ; - , , , > - , , : x ` W W W W U s ",
"s f j k k k j l r Z Z < ; , , , ; ; , , , , ; ; , , , > ; , , : 8 j j j j j f a ",
"s I ! ! ! ! ! c : : > - ; : , , - ; , , , , ; - , , , > * q S w c ^ ! ! ^ ^ I a ",
"a O.e.1.2.2.e.G > , , - > , , , - ; , , , , > - , , , ; - w 7.Z D e.<.1.1.,.O.s ",
"a T ~ ~ ~ ~ ' x , , , - ; , , , - ; , , , , ; - , , , ; & w 6.Z z ' ~ ` ~ ' U s ",
"a P ' ~ ~ ~ ~ x , , , - ; , , , - ; , , , , ; - , , , : * w o.Z z ' ~ ! W ' P a ",
"d P ~ ! ~ ~ ' x , , , - > , , , - > , , , , ; - , , , ; - w 6.Z z ` ~ ~ W ~ P a ",
"s T ' ~ W ~ ~ x , , > ; ; , , , * ; 3 , , , ; - , , , ; * w 7.Z x ' ( ' ' ' U a ",
"s H U P P P R l : , : - ; , , , ; ; : , , , ; - , , 3 ; - 3 | r t U U U P P K a ",
"a f k k k k j t 4 q w ; > , , , - ; , , , , ; - , , : ; - , 3 , 8 j g k j k f s ",
"a O.,.>.2.,.-.X.[ { o.e ; , , , - ; , , 3 : ; - , , , ; - , : : G ,.>.2.>.,.O.s ",
"a Q @.+.+.+.+. ...9.w.y ; , , > ; ; , , 3 , ; - , , , ; * 3 , : B @.] @.] @.E s ",
"s P ~ ! ~ ~ ~ I B F D 3 ; : , , * ; , , : : ; - , , , ; * : , : z ` W W ~ ` P s ",
"s P ' ~ ~ ! ~ m 1 4 2 ; ; C q 2 - : 4 4 4 4 : ; 4 4 4 , ; 4 4 4 m ` ` W ~ ' T a ",
"s P ~ ~ ~ ~ ~ D C C C , , C C C 3 4 C C C C 4 : C C C 4 , C C C D ` W ` ~ ` P a "
};
