/* XPM */
static char *ce86c0964e124b32a739034d25f15fa2lWxfAR8jBm8i2rZQ[] = {
/* columns rows colors chars-per-pixel */
"40 40 39 1 ",
"  c #56403D",
". c #57403D",
"X c #59413E",
"o c #5A413E",
"O c #5C4340",
"+ c #5D4340",
"@ c #5F4441",
"# c #674945",
"$ c #694945",
"% c #694A46",
"& c #6E4C48",
"* c #734F4A",
"= c #734F4B",
"- c #744F4A",
"; c #744F4B",
": c #76504B",
"> c #76514C",
", c #77514C",
"< c #78514C",
"1 c #7A524D",
"2 c #7A534D",
"3 c #7C544E",
"4 c #7E554F",
"5 c #7E5550",
"6 c #805650",
"7 c #825751",
"8 c #825752",
"9 c #835852",
"0 c #845852",
"q c #845853",
"w c #855953",
"e c #875A54",
"r c #885A55",
"t c #8A5B55",
"y c #8A5C56",
"u c #8C5D57",
"i c #8D5D57",
"p c #8E5E58",
"a c #8F5E58",
/* pixels */
",,,,,,,,,,,,,,,,,,,,,,,,,,,,,,,,,,,,,,<,",
",,,,,,,,,,,,,,,,,,,,,,,,,,,,,,,,,,,,,,<<",
",,,,,,,,,,<<,,,,>>,,,,,,,,,,>>,,,,,,,55w",
",,,,,,,,,,,:,,,,,,,,,,,,,,,,,,,,,,,<,9rr",
"555555555555466655555555555555553365wrui",
"rrrrwwwrrrrrrrrwwwrrrrrrrrrrwwrrrrrrrtii",
"rwwwwwrrwrrrr00wwwwwwwrrwrwrwwwywwrwrr7r",
">,==>:::;;*;;:;;,=,=,=;;=,==>==>**:*:::;",
"+#O+#.#o+#o+#.#o#+.#.#o#+##OO# #@@@@@@@@",
"        ....     ....... O        ......",
"   .  .   ..      ....oo            .  .",
"+O++#ooo+.#.#ooo+.o#o.ooOOOO++. #ooo.#.@",
"$#$#$#$$$$$$#$$$$$$#$$$$$$$$$$$$$#$$####",
";;;;;;;;;-;<;=;;-:**;;;;;;;;;;;=;;*;==>:",
"<<<<,<<<:::<<<<<1::::1:1;::4:<;;<<<<,,,,",
"<<<<,<<<::<<,,<<:1::1:1::::;4;4:<<<<<<,,",
",,,,,,,,,<<<,,,,:5;:,,,,,,,,,,,,,,,,,,,,",
",,,,,,,,,,993,,,::<:,<,,,,,,,,>>,,,,,,,,",
",,,,,,<<,5wr9<,,<,<<:<::,,,,,,,,,,<<,,,,",
"5555555539rpw955555555655555555555555555",
"eeeerrrrrrparrrerrrrrrrrrrrrwwrwrrrrrrrr",
"eeeewwrwrwwrwwrewrrrrwq0wrrwwrwrrwrwrrww",
">&>:==*:::,:,*,,;**;;*=*,=====,>;;;;,***",
"OO#O@@@@O@@@@@@@#+++#o+##+@@@@@@@@@@@+O#",
"       oo  o    ...... o     ...        ",
"    o   o   o  o.....  o   X.... o o o o",
"OOOOOO+OOooooo@oo#.+o#ooOOOO#O++oOOooo@o",
"$$$$$#$$$$$#$$#########$$#$&&=%%#$$#$$%#",
";;;;*;;;,::*==*:*;:;;;;;;;;568<;;;*:;;;:",
",,<<=<<<<<>,<,,,;;::,<,,,<<6rq853<:<<<:;",
",,;<,,,,<<<<,,<<<<,,<<<<<,;458ww6<,<<<,,",
"4,4<<4<<<3<<<<3<<3<<:4<:4,4<<6rrw3<<3<<3",
"60q0wwwwwww00w00w0qwqq00qqq0wrpaurw0wwww",
"rutrrrrrurttrtttrrrtttrrttttrrrrurrrrrrr",
"6404356566433446556664645466555693033666",
"$#$$$$$$$$$$$$$$$$$$$$$$$$$$#$$$#$$$#$$$",
" .oooooooooo.ooooooooooo.ooooooo ooooooo",
"..  .   ......................   o  o   ",
"oooooo oo.+.+..o+ +.o.+ ..oooooo ooooooo",
"oo ooooo +.o.oo..o o +.oooo.oo ooo o o o"
};
