/* XPM */
static char *c1fc57f617ea482ef1dc907fbefdd6c7b0win73H1oi363Jd[] = {
/* columns rows colors chars-per-pixel */
"40 40 179 2 ",
"   c None",
".  c #010102",
"X  c #060608",
"o  c #080709",
"O  c #0A090B",
"+  c #080305",
"@  c #13090B",
"#  c #1B0C0E",
"$  c #180405",
"%  c #0E0F11",
"&  c #110F12",
"*  c #121214",
"=  c #16161A",
"-  c #17191C",
";  c #191A1D",
":  c #181518",
">  c #2C0C0C",
",  c #260D0F",
"<  c #2A0E10",
"1  c #2E1719",
"2  c #331113",
"3  c #3D1112",
"4  c #32181A",
"5  c #331518",
"6  c #1D1E20",
"7  c #201F22",
"8  c #232224",
"9  c #2C2124",
"0  c #252629",
"q  c #2B262A",
"w  c #26282C",
"e  c #2A2A2E",
"r  c #3E2427",
"t  c #2D2C30",
"y  c #302D32",
"u  c #2E3337",
"i  c #2F3438",
"p  c #333236",
"a  c #333539",
"s  c #37383C",
"d  c #4B1516",
"f  c #42191A",
"g  c #561819",
"h  c #5B1B1C",
"j  c #521718",
"k  c #631C1C",
"l  c #6C1F20",
"z  c #412527",
"x  c #5D3B28",
"c  c #6C2122",
"v  c #662425",
"b  c #762627",
"n  c #6A3A3E",
"m  c #743437",
"M  c #72503F",
"N  c #3D3B40",
"B  c #413F42",
"V  c #683F43",
"C  c #3F4044",
"Z  c #424145",
"A  c #46454A",
"S  c #48454A",
"D  c #4A4A4B",
"F  c #464448",
"G  c #524349",
"H  c #4D4E51",
"J  c #504B50",
"K  c #4E565C",
"L  c #4F585E",
"P  c #555359",
"I  c #575559",
"U  c #654A4F",
"Y  c #6B4D52",
"T  c #62555B",
"R  c #4D5A61",
"E  c #525C62",
"W  c #5C5C62",
"Q  c #635E65",
"!  c #5D666D",
"~  c #636067",
"^  c #64646A",
"/  c #68636A",
"(  c #736F77",
")  c #6C727A",
"_  c #697074",
"`  c #75737C",
"'  c #7A757E",
"]  c #7A7979",
"[  c #852726",
"{  c #872929",
"}  c #942C2C",
"|  c #992D2D",
" . c #9A3A3B",
".. c #A32F2F",
"X. c #A02F30",
"o. c #AC3232",
"O. c #AA3C3E",
"+. c #A63C3D",
"@. c #B23433",
"#. c #AB433C",
"$. c #AD5931",
"%. c #AF5230",
"&. c #C45B39",
"*. c #CA6734",
"=. c #9F484B",
"-. c #944F54",
";. c #955154",
":. c #9E5957",
">. c #A34648",
",. c #A04E51",
"<. c #BC6346",
"1. c #AE6C56",
"2. c #BE6755",
"3. c #B47456",
"4. c #865D63",
"5. c #9B5C60",
"6. c #8E656B",
"7. c #93686E",
"8. c #92656B",
"9. c #9D786C",
"0. c #87767E",
"q. c #89757D",
"w. c #8D7B7D",
"e. c #C76D69",
"r. c #CD6F70",
"t. c #CA7171",
"y. c #6E7B83",
"u. c #747C84",
"i. c #7A7B80",
"p. c #827C84",
"a. c #8D7C84",
"s. c #927B81",
"d. c #7E8283",
"f. c #768288",
"g. c #85838C",
"h. c #8A838C",
"j. c #848A94",
"k. c #8A8B95",
"l. c #8D8F99",
"z. c #868790",
"x. c #87959E",
"c. c #8C929C",
"v. c #9A989D",
"b. c #AD9394",
"n. c #B79796",
"m. c #8A9AA3",
"M. c #8897A0",
"N. c #969EA6",
"B. c #95A2AC",
"V. c #98A4AE",
"C. c #97A5B0",
"Z. c #99A6B0",
"A. c #9AABB5",
"S. c #9BAEB8",
"D. c #9EB1BC",
"F. c #A4A5A9",
"G. c #A7A7A8",
"H. c #A4B5BE",
"J. c #B5B4B4",
"K. c #BBBABA",
"L. c #C08082",
"P. c #D8B3B0",
"I. c #A7B7C0",
"U. c #AABAC3",
"Y. c #B7C3CA",
"T. c #C8C8C8",
"R. c #CBD5DB",
"E. c #C7D2D7",
"W. c #D7DADC",
"Q. c #EEC9C9",
"!. c #F6CFCF",
"~. c #E7D4D5",
"^. c #D5DEE3",
"/. c #DDE6EB",
"(. c #E4E3E3",
"). c #EBEBEC",
"_. c #EDEFF0",
"`. c #F1F3F4",
"'. c #F7F8F9",
/* pixels */
"                        X X X . X . X .                                         ",
"                        X X o @ # # # #                                         ",
"                        . X # f h h g d <                                       ",
"                          o 2 c } X.} c 2 o                                     ",
"                          o 2 k {  .>.m 5 X .                                   ",
"                              > f U 4.Y 7 . . . . . . . . .                     ",
"                              & 7 J ( Q B 6 = = - ; - - ; -                     ",
"                            ; p S ^ i.i.^ E K K K K L L L A w                   ",
"                          O q P ( d.g.z.x.m.m.m.m.m.m.m.m._ i O                 ",
"                        ; q S ` k.l.k.c.B.D.D.D.S.D.D.I.S.y.i O .               ",
"                      * p P ) j.B.B.B.B.Z.S.S.S.S.S.S.I.A.y.i O .               ",
"                    . = Z ' c.B.G.H.H.H.U.H.U.H.I.I.U.U.D.f.N O .               ",
"                    . = H z.V.A.D.Y.R.^.^.^.^.^.^./././.^.N.Z o .               ",
"                    . - K x.A.S.H.R._.`.'.`.`.`._._._.'._.A.D O .               ",
"                    . ; K m.D.D.H.R.`.).T.J.J.J.J.K.P.Y.J.d.a O .               ",
"                    . - K m.D.D.H./.`.T.d.D C F D H D D D p - o .               ",
"                    . = R m.S.S.U.^._.T.^ e 8 0 ; * O - 8 6 * o .               ",
"                    . = J f.B.A.H./.`.W.G.f.d.d.I 7 % B _ W e o .               ",
"                    . = B u.k.N.H.W.`.'.).~.(.W.v.B 8 / K.G.D O .               ",
"                    X & q P ( j.Z.Y.R.~.!.Q.!.Q.n.M M 9.P.b.F O .               ",
"                    X O * 0 A ( l.B.F.n.n.r.r.r.2.$.$.<.2.;.z o .               ",
"                    X X X o q Q q.w.q.7.,.o.O.O.%.*.*.&.%.m 5 o .               ",
"                      . . X 4 V ;.:.;.;.-.-.-.-.:.1.3.1.;.n 4 o .               ",
"                        X O 5 b +.O.O.=.8.q.p.q.w.w.w.w.q.T q o .               ",
"                        < % 5 m >.>.>.5.s.l.c.l.l.c.c.c.j.^ t O .               ",
"                      } f # 7 U 8.7.7.s.v.C.A.C.V.V.V.A.B.) i X .               ",
"                    @.| g # w W p.a.p.k.c.M.m.m.m.m.m.B.B.y.i O .               ",
"                  @.@.| g # w W p.k.p.y.! R R E L K ! u.x.) u X .               ",
"                o.@.@.| g # w W p.a.p.^ s 6 = = = = w P ` Q t X                 ",
"              o.o.o.@.| g # w W i.i./ B z > $ + O ; y S P F 8 X                 ",
"              o.o.@.@.| g # q ~ i.W N z l l 3 @ 6 A I S y 7 * .                 ",
"                X.o.o.} d # 0 P / B : 2 b { j # 0 P / B = . .                   ",
"                b [ [ c 2 @ - p s e O > k c 3 @ ; p B t O .                     ",
"                        $ o O % = O         @ + O * * &                         ",
"                        X X . . . .         + X . . . .                         ",
"                          X . . .             X . . .                           ",
"                                                                                ",
"                                                                                ",
"                                                                                ",
"                                                                                "
};
