/* XPM */
static char *_d6c235618d4463380e614c30c6aba05KTYQVYPyU1AopXX1[] = {
/* columns rows colors chars-per-pixel */
"40 40 183 2 ",
"   c None",
".  c #010203",
"X  c #070608",
"o  c #080709",
"O  c #09090B",
"+  c #080608",
"@  c #13090B",
"#  c #1A0C0E",
"$  c #150506",
"%  c #0F0F11",
"&  c #100F11",
"*  c #131215",
"=  c #161619",
"-  c #181619",
";  c #17181B",
":  c #191A1D",
">  c #290B0C",
",  c #210C0E",
"<  c #290F11",
"1  c #300F11",
"2  c #2C1A1D",
"3  c #2F1011",
"4  c #331213",
"5  c #3A1213",
"6  c #34181B",
"7  c #1E1E22",
"8  c #2B1F23",
"9  c #1E2124",
"0  c #232325",
"q  c #252629",
"w  c #29272B",
"e  c #27282C",
"r  c #2B2A2E",
"t  c #2C2024",
"y  c #3C2E28",
"u  c #2D2E32",
"i  c #302E33",
"p  c #2D3134",
"a  c #333236",
"s  c #313539",
"d  c #3C3A3E",
"f  c #36383A",
"g  c #4C1516",
"h  c #401011",
"j  c #521718",
"k  c #571919",
"l  c #5D1C1D",
"z  c #651C1B",
"x  c #422528",
"c  c #402124",
"v  c #453335",
"b  c #642324",
"n  c #6D2021",
"m  c #7B2424",
"M  c #742627",
"N  c #6E2E32",
"B  c #783335",
"V  c #3D3C41",
"C  c #413E43",
"Z  c #3F4145",
"A  c #434245",
"S  c #44454A",
"D  c #49464B",
"F  c #4C4B4D",
"G  c #47494B",
"H  c #544449",
"J  c #564943",
"K  c #4B4D53",
"L  c #504D54",
"P  c #4C5157",
"I  c #4E565C",
"U  c #4F585E",
"Y  c #55545B",
"T  c #5A5A5C",
"R  c #59555C",
"E  c #65484D",
"W  c #714145",
"Q  c #614E54",
"!  c #67595F",
"~  c #5D5B62",
"^  c #555F65",
"/  c #625E65",
"(  c #65636A",
")  c #6A666D",
"_  c #626067",
"`  c #7A676F",
"'  c #6E6D75",
"]  c #756F77",
"[  c #79747C",
"{  c #7D7C7D",
"}  c #74737B",
"|  c #852726",
" . c #8C2929",
".. c #932B2C",
"X. c #9A2D2D",
"o. c #81393C",
"O. c #A32F2F",
"+. c #AB3232",
"@. c #A53738",
"#. c #B43434",
"$. c #915538",
"%. c #844826",
"&. c #BA533F",
"*. c #C15E2E",
"=. c #C45B39",
"-. c #C36229",
";. c #9F4246",
":. c #945155",
">. c #A04447",
",. c #A54545",
"<. c #B54B4B",
"1. c #B54E46",
"2. c #AE5547",
"3. c #BD6247",
"4. c #AE6F59",
"5. c #8F656B",
"6. c #896065",
"7. c #91676E",
"8. c #93686F",
"9. c #986F6F",
"0. c #8A7B77",
"q. c #A37C6F",
"w. c #A17573",
"e. c #A97175",
"r. c #C26C46",
"t. c #C87346",
"y. c #BF8073",
"u. c #6E7A82",
"i. c #727D85",
"p. c #7D7C82",
"a. c #7E7F88",
"s. c #827C84",
"d. c #7F8081",
"f. c #858485",
"g. c #84828B",
"h. c #8A848D",
"j. c #858889",
"k. c #868F98",
"l. c #8A8D95",
"z. c #8D949E",
"x. c #98989D",
"c. c #8A9AA3",
"v. c #939AA4",
"b. c #939FA9",
"n. c #9DA0A1",
"m. c #99A7B1",
"M. c #9AABB5",
"N. c #9CAFB8",
"B. c #97A8B2",
"V. c #9DB0BB",
"C. c #A6A6AA",
"Z. c #B1A5A4",
"A. c #A4B5BF",
"S. c #B5B9BA",
"D. c #C18385",
"F. c #D0918C",
"G. c #DD9C9B",
"H. c #D19192",
"J. c #E09F9E",
"K. c #E4A2A3",
"L. c #A5B7C0",
"P. c #A7BAC3",
"I. c #AABBC4",
"U. c #B9C6CD",
"Y. c #BDCAD1",
"T. c #CDCECE",
"R. c #C7C4C6",
"E. c #C8D3DA",
"W. c #DDDDDE",
"Q. c #D1DADF",
"!. c #D6C8C7",
"~. c #D3DDE2",
"^. c #EBDFE0",
"/. c #DAE2E5",
"(. c #E0E1E1",
"). c #E7ECEE",
"_. c #EAEAEA",
"`. c #EFE1E1",
"'. c #F4E5E5",
"]. c #F8EAEA",
"[. c #EAEFF2",
"{. c #F1F4F5",
"}. c #F5F8F9",
/* pixels */
"                                                                                ",
"                                                                                ",
"                                  .                                             ",
"                          o o o O o o o                                         ",
"                        X o @ < 5 5 5 > ,                                       ",
"                        . o < l m | m l 4 o                                     ",
"                          O 4 n X.+.@.B 4 + .                                   ",
"                            > g b W :.W 8 . . .     . .                         ",
"                              @ 2 H ` / u X X O O O O O O X                     ",
"                              9 u Y [ ' K V p s s s s s s p 9                   ",
"                          . 8 S / ] a.a.i.u.u.u.u.u.u.u.u.^ p O                 ",
"                        O = a ( s.h.g.k.b.M.M.M.B.M.M.V.B.u.s O                 ",
"                      * w V R a.v.v.z.c.B.N.V.V.V.V.V.P.M.u.s O .               ",
"                    . * V ) g.v.B.M.m.N.N.N.N.N.V.V.V.P.M.u.s O .               ",
"                    . = D a.b.m.N.I.U.U.Y.Y.Y.Y.Y.Y.Y.Y.Y.d.Z X .               ",
"                    . = P k.m.N.L.T.~.).[.[.[.[.[.[.[.}.[.C.S O .               ",
"                    . : U c.N.N.L.E.{.}._.(.W.W.(.(./.)./.n.A O .               ",
"                    . : U c.V.N.L.~.{.W.C.d.{ { d.y.d.d.d.T q X .               ",
"                    . : U c.N.N.A.~.{.R.( e 2 q 9 9 e e q 7 % X X               ",
"                    . ; P k.m.M.I.~.{.T.d.F S F p % O q Z f : X .               ",
"                    . = D a.v.B.P.Q.{.].T.S.I.S.d.p = T n.j.d O .               ",
"                    . * d ( s.v.C.R.^.'.'.'.].`.Z.J y 0.!.Z.F O .               ",
"                    . % 8 V Q 6.e.D.H.J.G.J.K.J.y.$.%.4.F.q.v O .               ",
"                    o o o - x B ,.<.<.<.<.<.<.<.&.*.-.=.&.o.6 o .               ",
"                      X . . 6 N ;.,.;.;.>.>.>.>.2.r.t.3.>.N 2 o .               ",
"                        . O 8 E 5.7.5.7.7.7.7.8.9.q.q.w.5.E t o .               ",
"                        $ o w ~ s.s.s.p.[ ] ] ] ] ] ] s.s.T r o .               ",
"                      ..4 @ e ~ s.l.h.' ^ S V S A V G ) s._ r o .               ",
"                    #.X.j # e ~ s.s.s.) a - * * * * 0 L } / r o                 ",
"                  #.#.X.k - e ~ s.p./ H x 1 $ $ O : u D Y D 0 o                 ",
"                +.#.#.X.k # e _ p.~ V x b n 5 @ 7 S R D u 8 * .                 ",
"                O.+.+...g # 8 Y / C - 1 m  .j # q Y ( V = . .                   ",
"                m | | n 4 @ = a V r O > z n 5 @ : a C r O .                     ",
"                        @ + O % * O         @ o O * * &                         ",
"                        . X X . . .         X + . . . .                         ",
"                          . . . .             . . . .                           ",
"                                                                                ",
"                                                                                ",
"                                                                                ",
"                                                                                "
};
