/* XPM */
static char *_49ca9bde3c94892cb1fa9632f1d198aUMkRAmGLJ31ln0v6[] = {
/* columns rows colors chars-per-pixel */
"40 40 184 2 ",
"   c None",
".  c #010203",
"X  c #060608",
"o  c #080709",
"O  c #09090B",
"+  c #090406",
"@  c #13090B",
"#  c #1A0C0E",
"$  c #190507",
"%  c #0F0F11",
"&  c #100F11",
"*  c #131215",
"=  c #16161A",
"-  c #181619",
";  c #17191C",
":  c #191A1D",
">  c #250D0E",
",  c #280909",
"<  c #2C0F10",
"1  c #300F11",
"2  c #2D191B",
"3  c #341214",
"4  c #34181B",
"5  c #381315",
"6  c #1E1E21",
"7  c #242426",
"8  c #2B2024",
"9  c #262629",
"0  c #26282C",
"q  c #2B2A2D",
"w  c #2C262A",
"e  c #3C2E28",
"r  c #2F2D31",
"t  c #302E33",
"y  c #2F3235",
"u  c #2F3438",
"i  c #343336",
"p  c #323539",
"a  c #36383B",
"s  c #3A3C3D",
"d  c #4B1617",
"f  c #411415",
"g  c #521718",
"h  c #571919",
"j  c #591A1B",
"k  c #651C1B",
"l  c #422528",
"z  c #453335",
"x  c #6C2020",
"c  c #662426",
"v  c #762A2B",
"b  c #772525",
"n  c #6E2E32",
"m  c #753335",
"M  c #6A393D",
"N  c #3C3D42",
"B  c #413E43",
"V  c #6F3D40",
"C  c #3F4145",
"Z  c #434146",
"A  c #44454A",
"S  c #49464B",
"D  c #44494C",
"F  c #4C4B4D",
"G  c #544746",
"H  c #4A4D52",
"J  c #504D54",
"K  c #4E565C",
"L  c #4F585E",
"P  c #55545B",
"I  c #58565A",
"U  c #65494E",
"Y  c #694D52",
"T  c #61535A",
"R  c #5D5B62",
"E  c #515A60",
"W  c #625E65",
"Q  c #5E656C",
"!  c #65636A",
"~  c #626067",
"^  c #6D6F77",
"/  c #766F77",
"(  c #697078",
")  c #73737B",
"_  c #79747C",
"`  c #7D7C7D",
"'  c #862727",
"]  c #8A292A",
"[  c #992C2D",
"{  c #922B2B",
"}  c #803638",
"|  c #A32F2F",
" . c #AB3232",
".. c #A63D3E",
"X. c #B33434",
"o. c #8B4F2F",
"O. c #BA533F",
"+. c #C15E2E",
"@. c #C45B39",
"#. c #C36229",
"$. c #9F4245",
"%. c #934649",
"&. c #9E5A5E",
"*. c #A04447",
"=. c #A44746",
"-. c #B64B4C",
";. c #B44A46",
":. c #AE5547",
">. c #BD6247",
",. c #AE6F59",
"<. c #8E5F65",
"1. c #985B60",
"2. c #8F656B",
"3. c #91676E",
"4. c #93686F",
"5. c #9B686B",
"6. c #87757D",
"7. c #8A7B77",
"8. c #967077",
"9. c #A37C6F",
"0. c #A17573",
"q. c #BD7779",
"w. c #C57046",
"e. c #BF8073",
"r. c #6D7A82",
"t. c #717E85",
"y. c #7D7D82",
"u. c #827C84",
"i. c #8B7D86",
"p. c #7F8182",
"a. c #858485",
"s. c #84828B",
"d. c #89858C",
"f. c #848B93",
"g. c #8A8B95",
"h. c #8A8B95",
"j. c #87959E",
"k. c #8C919B",
"l. c #9E9E9F",
"z. c #948188",
"x. c #8A9AA3",
"c. c #8897A0",
"v. c #9499A1",
"b. c #95A1AB",
"n. c #9AA2A9",
"m. c #9AACB6",
"M. c #9CAEB8",
"N. c #98A8B2",
"B. c #9EB1BB",
"V. c #A5A6A8",
"C. c #B1A5A4",
"Z. c #A0ABB4",
"A. c #A2B4BE",
"S. c #B5B9BA",
"D. c #D08F8F",
"F. c #D0918C",
"G. c #DD9C9C",
"H. c #E09F9E",
"J. c #C4B2B6",
"K. c #E4A2A3",
"L. c #A9B9C1",
"P. c #A4B7C2",
"I. c #BAC7CE",
"U. c #B5C2C9",
"Y. c #BDCAD1",
"T. c #CDCFCF",
"R. c #C3C3C3",
"E. c #CACCD1",
"W. c #C8D4DA",
"Q. c #DDDDDE",
"!. c #D1D9DE",
"~. c #D6C8C7",
"^. c #E9DADB",
"/. c #D4DEE3",
"(. c #DAE1E4",
"). c #E0E1E1",
"_. c #E6ECEE",
"`. c #EAEBEB",
"'. c #EFE1E1",
"]. c #F4E6E6",
"[. c #F9EAEA",
"{. c #EAEFF2",
"}. c #F1F3F4",
"|. c #F5F8F9",
/* pixels */
"                                  . X .                                         ",
"                                  # # #                                         ",
"                                @ 5 d d <                                       ",
"                          X X X # j ] b 5 o                                     ",
"                        . X @ > f m $.m 4 X .                                   ",
"                        . X > h m %.<.Y 8 . . . . . . . . .                     ",
"                        . O 5 v $.&.i.W a 6 = ; ; ; ; ; ; ;                     ",
"                        . . 2 V 1.8.u.) Q E K K L K L L K D 0                   ",
"                        . O w T 6.i.u.f.j.x.x.x.x.x.x.x.x.( u O                 ",
"                        : q S ^ g.k.g.v.N.B.B.B.B.B.B.P.B.t.u O .               ",
"                      * p I ) f.b.b.b.b.m.B.B.B.B.B.B.P.m.p.u O .               ",
"                    . = Z _ k.b.m.B.m.m.m.m.m.m.m.m.M.A.m.r.u O .               ",
"                    . = H s.b.M.M.M.m.m.m.m.N.m.N.m.m.B.N.r.u X .               ",
"                    . ; K j.M.B.m.M.M.M.M.M.M.M.M.m.B.P.m.r.u O .               ",
"                    . ; L x.B.B.B.P.U.I.Y.Y.Y.Y.Y.Y.Y.Y.I.j.C X .               ",
"                    . ; L x.A.B.A.Y.(._.{.{.{.{.{.{.{.|._.Z.C O .               ",
"                    . 6 J j.M.m.A.!.}.|.`.).Q.Q.).).).`.).l.Z O .               ",
"                    . = H h.b.m.L./.}.Q.V.` ` ` ` a.a.a.` I 7 O .               ",
"                    . = B r.k.b.A.(.}.R.! q 6 9 9 7 7 7 7 : & O X               ",
"                    . # r P ^ f.Z.!.}.T.a.F A S i * O 7 Z s : X .               ",
"                    X o = 9 B ^ l.E.{.{.T.S.S.S.p.r = I l.a.s O .               ",
"                    X X . % w I z.J.^.].].].[.'.C.G e 7.~.C.F O .               ",
"                      . . . 2 V &.q.D.G.H.H.K.H.e.o.o.,.F.8.z O .               ",
"                        . X 1 v ..;.;.-.-.-.-.-.O.#.#.@.;.o.4 O .               ",
"                        > % 2 m *.*.$.$.*.$.*.*.:.w.w.w.*.n 3 O .               ",
"                      [ d # w U 3.4.3.3.4.4.4.4.8.9.9.0.2.U 8 X .               ",
"                    X.[ g # 0 R u.i.u.y._ / / / / / _ u.u.R 0 o .               ",
"                    X.[ j # 0 R u.g.i.) E C N A Z N D ! y.~ r o .               ",
"                    X.[ j # 0 R u.i.y.! i - # * * * 7 J / W q X                 ",
"                  X.X.[ j # 0 R y.y.! B l 1 $ X O : r S P S 7 X                 ",
"                 .X.X.[ h # w ~ y.R N l c x 5 @ 6 A R S r 7 * .                 ",
"                |  . .{ d # 9 P W B - 3 b { g # 7 P W B = . .                   ",
"                b ' ' x 3 @ ; i N 0 @ , k x 5 @ ; i B q O .                     ",
"                        @ + o % * O         @ + o * * *                         ",
"                        X X X . . .         X X . . . .                         ",
"                          . . . .             X . . .                           ",
"                                                                                ",
"                                                                                ",
"                                                                                ",
"                                                                                "
};
