/* XPM */
static char *eaef2afeb51647a0e46beac30a011d6fyouekRYZFgqd4nmO[] = {
/* columns rows colors chars-per-pixel */
"40 40 108 2 ",
"   c #323B4C",
".  c #333B4D",
"X  c #333C4D",
"o  c #353E50",
"O  c #374153",
"+  c #384154",
"@  c #394356",
"#  c #3A4357",
"$  c #3A4458",
"%  c #3B4558",
"&  c #3B4559",
"*  c #3C4659",
"=  c #3D475A",
"-  c #3D475C",
";  c #3E495D",
":  c #3F4A5F",
">  c #3F4A60",
",  c #404A5F",
"<  c #404B60",
"1  c #414D62",
"2  c #424E64",
"3  c #444F64",
"4  c #454F65",
"5  c #455065",
"6  c #445066",
"7  c #465166",
"8  c #465167",
"9  c #445068",
"0  c #455068",
"q  c #46526A",
"w  c #47536A",
"e  c #47546B",
"r  c #48546C",
"t  c #48546D",
"y  c #4A556C",
"u  c #49566F",
"i  c #4A566E",
"p  c #4A5770",
"a  c #4B5870",
"s  c #4D5972",
"d  c #4C5973",
"f  c #4D5B75",
"g  c #4F5C74",
"h  c #4E5C76",
"j  c #4F5C77",
"k  c #4F5D78",
"l  c #505C75",
"z  c #505D75",
"x  c #525E77",
"c  c #515F7A",
"v  c #515F7B",
"b  c #54617B",
"n  c #53617E",
"m  c #55627C",
"M  c #56647F",
"N  c #556380",
"B  c #566481",
"V  c #566482",
"C  c #566583",
"Z  c #576684",
"A  c #586683",
"S  c #586783",
"D  c #586685",
"F  c #5A6883",
"G  c #5A6984",
"H  c #5D6B86",
"J  c #5E6C87",
"K  c #596888",
"L  c #5B6A89",
"P  c #5B6B8A",
"I  c #5C6B8B",
"U  c #5E6D89",
"Y  c #5E6D8A",
"T  c #5D6C8C",
"R  c #5E6D8D",
"E  c #5F6F8E",
"W  c #606F8D",
"Q  c #606F8F",
"!  c #61708C",
"~  c #62718E",
"^  c #63728F",
"/  c #607090",
"(  c #617191",
")  c #627191",
"_  c #627292",
"`  c #647390",
"'  c #657493",
"]  c #647494",
"[  c #667695",
"{  c #677696",
"}  c #677797",
"|  c #687795",
" . c #687796",
".. c #687797",
"X. c #697896",
"o. c #697997",
"O. c #687898",
"+. c #697998",
"@. c #6C7B9B",
"#. c #6C7C9B",
"$. c #6B7B9C",
"%. c #6C7C9C",
"&. c #6E7E9E",
"*. c #6E7E9F",
"=. c #6F7FA0",
"-. c #6F80A0",
";. c #7080A0",
":. c #7383A4",
/* pixels */
"6 1 & o         X X . . . . . . . . . O , 1 = X X X     .   . .   . . . . . . . ",
"2 2 , = = & = = = = = = % = = = = % % , 1 6 = ; = = = = = = = = = = = % % = = = ",
"2 6 i l l l l l l l l v l l x l b l l s 5 6 s l l l b g x l l l l c g v l l l l ",
"2 e m ` +.X...X...X...[ ....X.X.| X.X.H s e b ~ X.X.X.X.X.........[ +.} X...X.X.",
"1 i F #.:.=.$.$.$.$.$.$.$.$.$.$.#.;.=.' l i F #.:.=.$.+.#.#.@.@.$.$.$.%.=.%.;.:.",
"1 i F #.;.+.) ) ) / ) ) ) ) ) / ^ %.=.~ l i F #.=.+.) ) ~ ) ) ) ) ) ) ) ' @.;.:.",
", w m ) ` L C C Z Z Z N Z N N N G Q ` W s e b ~ ) K C C Z Z C C N N Z N A Q ' X.",
"@ = 4 s s r w i f p t w 9 w w 4 w p s i , % 6 s s e w i f p i w 9 w 4 6 w i s l ",
"O @ & = = @ = , 4 1 ; & @ @ = = # = = % # + # = = # = , 6 2 ; & @ # # # = = = = ",
"6 6 6 1 4 6 3 4 2 6 4 4 6 4 2 6 3 3 3 6 6 6 6 4 4 4 6 1 1 6 4 4 6 4 6 6 5 6 4 6 ",
"! H ~ H W H F l w i m H Y Y Y Y ! F H Y ~ G Y H Y H G l w i b H Y Y Y Y H H H Y ",
"X.@.@.#.%.;.X.M i s T =.=.%.+.$.#.#.#.#.$.%.%.%.%.=.X.D i s ~ %.=.%.X.$.+.=.%.;.",
"X.[ [ [ $.=.%.A i g ` -.%.+.} [ | ..' X.[ [ [ [ #.-.#.F i s ~ ;.$.+...] [ =.=.:.",
"Y Y Y T ` $.+.D i g ~ #.+.T Y K W L Y L T Y I T ~ #.X.C i l ~ %.+.T T T T [ =.=.",
"K L K K Q [ ] m e g Y } ' T Y Y L K L L K K K Y W [ ) C e g Y X.[ T K K Y ) ..+.",
"K K K Y L ) T v e a A W W K K K L L L L P K K K T ) Y c i a Z ~ T L L L T T / / ",
"Z Z Z N m D m i 4 w v N D N Z N N N N Z C A C m Z Z n p 6 w k Z Z N N N N N N C ",
"j f p t t w 2 , # = 1 w w 2 w w w 9 w i s f a i w 9 4 > & ; 2 4 9 w w w w w w 4 ",
"w 9 1 & # # @ @ # + # @ # # & @ # # @ - 1 6 ; = @ # & # + # # # = # @ = # @ # = ",
"2 2 2 2 4 4 4 3 2 9 2 w 2 4 4 4 4 4 4 4 6 6 6 6 2 2 9 2 2 2 w 2 6 2 4 4 4 4 9 2 ",
"2 t f D H Y H Q ~ H Y H H Y H Y Y Y H m i 6 l F H ~ Y Y ~ H Y H Y Y H Y H H H Y ",
"> e A X.=.=.$.@.$.$.#.#.=.$.$.@.$.=.%.~ s i C X.%.$.@.$.+.%.#.#.%.@.@.@.=.=.%.=.",
"1 i F #.=.$...[ [ ..X.[ } [ ..[ +.=.=.~ l i G %.;.@...[ [ ..X.[ ..[ [ [ [ %.=.:.",
"1 e F X.$.` L W L T L Y I I Y T T ..%.` l i M X.$.` L W L T L Y T L L Q T [ =.=.",
"1 i C ) [ T Y K K L D K L K L D Y ..[ Y s r m ] [ Q K K L K L K K K L K W Q ..+.",
"1 w m T ) Y K K L K T L L L K K K T T Z a r b Y ) L L K K L L L L L T K T L / ) ",
"< 2 s m Z Z Z Z Z Z m C C m N N Z Z N k w 6 s m A n N C Z Z N N m N C N N N N N ",
"= & > 2 9 9 e p g s i e w w w w w w 9 2 ; = , 4 w w r p f f r i w w 6 w w w w 9 ",
"O @ # # + @ = > 6 4 ; # @ = @ = # = # # O O @ # @ @ = < 2 2 - # @ = @ = & @ = # ",
"6 6 5 6 9 6 2 6 1 4 1 6 4 4 4 6 2 2 2 9 6 4 4 6 6 4 2 6 4 2 4 4 6 4 4 2 6 4 6 6 ",
"! ! W H Y H G g w i m H Y Y W H H Y Y H H ~ H ~ Q H H s w i m T ~ H W H Y H H H ",
"@.X.%.+.%.-...Z y s Q =.%.@.%.+.%.#.#.%.#.#.#.%.%.%.+.m w s Q =.%.@.@.#.%.%.=.-.",
"..' [ ..%.;.%.F i g ' -.%.+.} ..[ [ ..[ [ [ [ [ %.;.%.D e g ' -.%.+.[ [ O.%.;.-.",
"W H L Y ) %.+.Z i g ~ %.} T K Y T T T T T T L T ) %.X.Z i g ~ %.+.T I T T [ -.=.",
"K L G K T ..] m e s Y [ ) P L L K K K K L L D K T [ [ M a a Y O.) K G K Y ( O.O.",
"L K L K T T Y v w p C ~ ~ P D L Y K K K L K L L T T Y b e a Z I ) K K Y K T ( ( ",
"D D Z Z D D Z s w t b Z Z Z Z Z Z Z Z Z Z Z Z Z Z G C f w i v Z Z Z Z Z Z Z Z Z ",
"f f f d k g p w 2 w p f k f f k f f g k g g f f g g a e 2 w a d g k g g d k f f ",
"w w w t w w w t 2 9 w w 9 w w w w 9 w w 9 e w w t t q 9 2 6 w w t w 9 w t t 9 e ",
"2 2 > 4 2 1 > 2 6 2 2 2 > 2 2 2 2 2 2 2 2 2 2 2 > 2 > 6 2 9 > 6 2 2 > 6 > 6 > 6 "
};
